<svg width="625" height="553" viewBox="0 0 625 553" fill="none" xmlns="http://www.w3.org/2000/svg">
<g filter="url(#filter0_d_1210_2262)">
<path d="M501.993 327.882C479.617 408.459 398.805 452.739 321.509 426.777C250.761 403.014 207.455 328.623 217.749 254.45C218.717 247.591 220.105 240.664 222.001 233.838C224.605 224.459 228.031 215.496 232.146 207.183C256.538 157.415 305.715 127.061 358.781 127.517C362.789 127.538 366.806 127.772 370.849 128.153C381.34 129.166 391.958 131.407 402.546 134.963C479.842 160.925 524.369 247.304 501.993 327.882Z" fill="#F4AD00"/>
</g>
<path opacity="0.78" d="M370.849 128.153C365.664 139.594 359.426 151.937 351.834 163.615C317.177 165.297 285.402 184.547 267.103 215.507C256.409 214.984 244.768 212.329 232.207 207.203C256.599 157.435 305.776 127.081 358.842 127.538C362.79 127.538 366.806 127.771 370.849 128.153Z" fill="#F4C83D"/>
<path opacity="0.19" d="M329.779 387.356C387.611 406.781 448.065 373.656 464.807 313.369C481.549 253.082 448.238 188.463 390.406 169.039C332.574 149.614 272.121 182.739 255.379 243.026C238.637 303.313 271.947 367.932 329.779 387.356Z" fill="#D39333"/>
<path d="M457.72 230.707C444.074 207.082 422.535 188.269 395.668 179.245C338.2 159.943 278.065 192.894 261.429 252.8C253.651 280.808 256.724 309.74 268.081 334.619C252.538 307.706 247.292 274.556 256.168 242.593C272.804 182.687 332.939 149.736 390.406 169.038C421.068 179.337 444.781 202.368 457.72 230.707Z" fill="#CC820A"/>
<path d="M470.049 324.127C453.413 384.034 393.278 416.984 335.811 397.682C305.211 387.404 281.497 364.373 268.497 336.013C282.143 359.638 303.682 378.451 330.549 387.475C388.017 406.777 448.152 373.827 464.788 313.92C472.565 285.913 469.493 256.981 458.136 232.102C473.679 259.015 478.925 292.164 470.049 324.127Z" fill="#F4C83D"/>
<path d="M302.258 330.318L303.17 322.896C309.661 323.888 313.733 323.934 315.387 323.037C317.157 322.178 318.563 319.876 319.603 316.13L344.317 227.135C345.357 223.389 345.361 220.616 344.329 218.816C343.414 217.055 340.012 214.592 334.125 211.426L337.139 204.71L383.382 220.242C396.111 224.517 405.124 230.451 410.42 238.042C415.75 245.513 417.107 253.961 414.489 263.386C412.409 270.878 408.662 276.555 403.249 280.418C397.986 284.198 392.934 286.069 388.094 286.028L387.742 287.297C394.812 291.257 400.053 296.981 403.464 304.467C406.875 311.954 407.422 319.866 405.107 328.204C402.825 336.421 397.191 342.917 388.205 347.693C379.369 352.387 367.769 352.322 353.406 347.498L302.258 330.318ZM350.788 270.724L360.597 274.018C370.173 277.235 377.767 277.473 383.379 274.734C389.141 271.914 393.062 266.758 395.143 259.266C399.304 244.283 392.743 233.888 375.46 228.083L363.724 224.141L350.788 270.724ZM336.393 322.562C335.419 326.066 335.708 328.475 337.258 329.788C338.674 331.585 342.068 333.386 347.44 335.19C358.65 338.955 367.278 339.607 373.324 337.146C379.369 334.685 383.466 329.588 385.613 321.855C388.734 310.617 386.503 301.412 378.919 294.242C375.202 290.615 370.6 287.88 365.111 286.037L348.12 280.33L336.393 322.562Z" fill="#CC820A"/>
<path d="M378.555 200.964L373.073 220.703" stroke="#CC820A" stroke-width="5" stroke-linecap="round"/>
<path d="M397.472 207.318L391.99 227.056" stroke="#CC820A" stroke-width="5" stroke-linecap="round"/>
<path d="M340.146 339.273L334.665 359.012" stroke="#CC820A" stroke-width="5" stroke-linecap="round"/>
<path d="M359.063 345.627L353.582 365.365" stroke="#CC820A" stroke-width="5" stroke-linecap="round"/>
<path d="M376.416 195.123L370.934 214.861" stroke="white" stroke-width="5" stroke-linecap="round"/>
<path d="M395.333 201.477L389.851 221.215" stroke="white" stroke-width="5" stroke-linecap="round"/>
<path d="M338.007 333.432L332.526 353.17" stroke="white" stroke-width="5" stroke-linecap="round"/>
<path d="M356.924 339.786L351.443 359.524" stroke="white" stroke-width="5" stroke-linecap="round"/>
<path d="M300.119 324.477L301.031 317.055C307.522 318.046 311.594 318.093 313.248 317.196C315.018 316.337 316.424 314.035 317.464 310.289L342.178 221.294C343.218 217.548 343.222 214.775 342.19 212.975C341.275 211.215 337.873 208.751 331.986 205.585L335 198.869L381.243 214.401C393.972 218.676 402.984 224.61 408.281 232.201C413.611 239.672 414.967 248.12 412.35 257.545C410.27 265.037 406.523 270.714 401.109 274.577C395.846 278.357 390.795 280.227 385.955 280.187L385.602 281.456C392.673 285.416 397.914 291.14 401.325 298.626C404.735 306.113 405.283 314.025 402.968 322.363C400.686 330.579 395.052 337.076 386.066 341.852C377.23 346.546 365.63 346.481 351.266 341.657L300.119 324.477ZM348.649 264.883L358.458 268.177C368.034 271.393 375.627 271.632 381.239 268.893C387.002 266.073 390.923 260.917 393.003 253.425C397.164 238.442 390.604 228.047 373.321 222.242L361.585 218.301L348.649 264.883ZM334.253 316.721C333.28 320.225 333.569 322.634 335.119 323.947C336.535 325.744 339.929 327.544 345.301 329.349C356.511 333.114 365.139 333.766 371.185 331.305C377.23 328.844 381.327 323.747 383.474 316.013C386.595 304.776 384.363 295.571 376.78 288.4C373.063 284.774 368.461 282.039 362.972 280.196L345.981 274.489L334.253 316.721Z" fill="white"/>
<path d="M209.323 162.047C246.638 106.284 388.263 41.2343 498.336 166.195" stroke="#7DEA33" stroke-width="3" stroke-linecap="round"/>
<path d="M483.927 164.592L498.979 167.404L498.746 151.828" stroke="#7DEA33" stroke-width="3" stroke-linecap="round"/>
<path d="M516.028 344.568C508.345 402.055 423.305 503.41 290.301 442.302" stroke="#7DEA33" stroke-width="3" stroke-linecap="round"/>
<path d="M302.087 438.541L289.341 441.563L295.46 453.895" stroke="#7DEA33" stroke-width="3" stroke-linecap="round"/>
<g filter="url(#filter1_d_1210_2262)">
<path d="M210.473 34.9995C177.696 63.1409 89.8337 104.05 50 120.987C50 281.237 150.722 473.732 210.473 467.869V34.9995Z" fill="#02ACAB"/>
<path d="M210.473 34.9995C242.844 63.1375 329.616 104.042 368.956 120.977C374.857 288.046 293.086 474.656 210.473 467.817V34.9995Z" fill="#007A79"/>
<path d="M142 256.118L184.387 311.735C185.194 312.794 186.792 312.784 187.585 311.714L278 189.725" stroke="white" stroke-width="15" stroke-linecap="round"/>
</g>
<defs>
<filter id="filter0_d_1210_2262" x="166.242" y="92.5122" width="391.535" height="406.691" filterUnits="userSpaceOnUse" color-interpolation-filters="sRGB">
<feFlood flood-opacity="0" result="BackgroundImageFix"/>
<feColorMatrix in="SourceAlpha" type="matrix" values="0 0 0 0 0 0 0 0 0 0 0 0 0 0 0 0 0 0 127 0" result="hardAlpha"/>
<feOffset dy="15"/>
<feGaussianBlur stdDeviation="25"/>
<feComposite in2="hardAlpha" operator="out"/>
<feColorMatrix type="matrix" values="0 0 0 0 0.956863 0 0 0 0 0.678431 0 0 0 0 0 0 0 0 0.4 0"/>
<feBlend mode="normal" in2="BackgroundImageFix" result="effect1_dropShadow_1210_2262"/>
<feBlend mode="normal" in="SourceGraphic" in2="effect1_dropShadow_1210_2262" result="shape"/>
</filter>
<filter id="filter1_d_1210_2262" x="0" y="-0.000488281" width="419.257" height="533" filterUnits="userSpaceOnUse" color-interpolation-filters="sRGB">
<feFlood flood-opacity="0" result="BackgroundImageFix"/>
<feColorMatrix in="SourceAlpha" type="matrix" values="0 0 0 0 0 0 0 0 0 0 0 0 0 0 0 0 0 0 127 0" result="hardAlpha"/>
<feOffset dy="15"/>
<feGaussianBlur stdDeviation="25"/>
<feComposite in2="hardAlpha" operator="out"/>
<feColorMatrix type="matrix" values="0 0 0 0 0 0 0 0 0 0.478431 0 0 0 0 0.47451 0 0 0 0.5 0"/>
<feBlend mode="normal" in2="BackgroundImageFix" result="effect1_dropShadow_1210_2262"/>
<feBlend mode="normal" in="SourceGraphic" in2="effect1_dropShadow_1210_2262" result="shape"/>
</filter>
</defs>
</svg>
