<svg width="377" height="108" viewBox="0 0 377 108" fill="none" xmlns="http://www.w3.org/2000/svg">
<path d="M28.6143 91.9013C14.589 93.8272 2.39749 102.985 0 108H377V52.7826C372.954 28.1077 353.624 22.0896 341.487 32.9223C329.35 43.755 314.965 48.5699 308.222 22.0896C302.828 0.905325 291.589 -1.18101 286.645 0.423847C270.461 0.423847 273.608 32.9223 252.93 32.9223C232.251 32.9223 239.444 66.0228 227.307 66.0228C215.169 66.0228 212.472 91.9013 210.674 83.4758C208.876 75.0502 200.784 66.0228 189.996 66.0228C179.207 66.0228 189.096 91.9013 178.308 91.9013C167.519 91.9013 169.767 48.5699 153.134 48.5699C136.501 48.5699 148.639 31.7186 129.759 32.9223C110.878 34.1259 116.273 66.0228 100.09 66.0228C83.9065 66.0228 75.815 46.7644 61.8795 48.5699C47.9441 50.3754 46.146 89.494 28.6143 91.9013Z" fill="url(#paint0_linear_1439_198)"/>
<defs>
<linearGradient id="paint0_linear_1439_198" x1="188.5" y1="0" x2="188.5" y2="108" gradientUnits="userSpaceOnUse">
<stop stop-color="#02ACAB"/>
<stop offset="1" stop-color="#02ACAB" stop-opacity="0"/>
</linearGradient>
</defs>
</svg>
