<svg width="449" height="615" viewBox="0 0 449 615" fill="none" xmlns="http://www.w3.org/2000/svg">
<path opacity="0.12" d="M17.2439 604.644C17.2439 606.414 48.8149 608.49 85.1998 608.49C121.585 608.49 151.088 607.06 151.088 605.29C151.088 603.521 121.585 602.091 85.1998 602.091C48.8149 602.091 17.2439 602.874 17.2439 604.644Z" fill="#EBEBED"/>
<path d="M113.769 592.326C113.996 588.79 113.428 579.846 113.428 579.846L104.376 579.804L105.285 593.199L111.383 597.276L113.769 592.326Z" fill="#A48585"/>
<path d="M114.45 590.787C115.397 590.579 114.98 591.494 115.321 592.991C116.117 596.403 128.008 596.569 129.826 596.902C130.735 597.068 132.212 602.06 127.592 602.019C123.615 601.977 110.815 601.852 106.459 601.769C105.55 601.769 104.755 601.103 104.528 600.188C103.77 596.902 104.036 591.827 105.247 591.702C107.065 591.119 110.474 591.743 114.45 590.787Z" fill="black"/>
<path d="M28.5567 579.638C31.2834 577.517 37.5322 571.318 37.5322 571.318L31.7 564.163L22.4593 573.565L23.444 581.011L28.5567 579.638Z" fill="#A48585"/>
<path d="M30.0715 579.18C30.8668 579.763 29.92 580.054 29.0489 581.302C27.0417 584.131 34.654 593.657 35.563 595.28C36.0553 596.112 33.3285 600.521 30.3745 596.819C27.837 593.657 19.6188 583.465 16.8541 579.971C16.286 579.222 16.248 578.182 16.7783 577.433C18.7097 574.688 22.6107 571.609 23.4817 572.524C25.0724 573.564 26.8145 576.643 30.0715 579.18Z" fill="black"/>
<path d="M114.488 585.046C105.626 586.876 101.99 586.543 101.99 586.543C101.044 580.054 98.4682 545.942 94.2644 534.877C90.0606 523.811 77.5628 491.364 77.5628 491.364C74.5331 505.549 72.9046 522.397 67.3374 537.331C58.7025 556.675 35.2597 575.977 35.2597 575.977C28.8214 571.692 24.807 567.74 25.8296 567.449C31.018 560.377 53.4004 539.952 54.4987 531.549C55.3319 525.309 54.5745 500.932 55.4077 480.423C55.6349 474.724 56.0136 469.357 56.5438 464.698C56.5438 464.615 56.5817 464.532 56.5817 464.449C56.7332 463.284 56.8846 462.202 57.0361 461.162C57.377 459.041 85.8568 455.172 85.8568 455.172L91.5377 453.758C96.461 468.692 107.368 522.48 108.315 530.259C109.224 538.08 114.867 582.467 114.488 585.046Z" fill="#2F2E41"/>
<path opacity="0.57" d="M82.1079 502.055C79.4946 495.898 77.563 491.405 77.563 491.405C78.3963 487.12 79.0022 482.128 79.0022 482.128C79.0022 482.128 81.6534 494.733 82.1079 502.055Z" fill="#1F1F39"/>
<path d="M126.647 395.689C126.647 395.689 132.653 401.509 133.532 399.445C137.194 390.859 139.977 391.85 143.492 390.901C147.008 389.951 150.45 385.906 147.85 383.636C144.261 380.499 141.808 384.255 139.244 384.626C136.681 384.998 138.256 381.737 136.681 381.985C135.106 382.232 134.337 386.278 132.982 387.64C131.774 388.961 126.647 395.689 126.647 395.689Z" fill="#A48585"/>
<path d="M73.4713 399.888L66.126 395.476C66.9332 391.615 66.8524 382.154 68.2246 378.887C69.7179 375.281 70.0004 375.578 70.0004 375.578L74.6821 380.457L76.8615 382.748C76.8615 382.748 76.2158 384.191 76.2158 386.906C76.2158 388.815 76.5386 391.318 77.6687 394.373C78.5162 396.706 73.4713 399.888 73.4713 399.888Z" fill="#A48585"/>
<path opacity="0.14" d="M76.6008 383.191C76.6008 383.191 76.0657 385.227 76.0657 388.189C71.5502 389.392 69.9112 384.255 71.2157 383.006C72.0184 382.219 74.7946 380.692 74.7946 380.692L76.6008 383.191Z" fill="#1F1F39"/>
<path d="M74.1918 368.229C75.8203 370.558 80.933 373.512 79.4181 374.552C77.9032 375.592 82.8265 379.419 81.2738 380.625C77.4866 383.496 71.465 383.953 69.7608 382.248C68.0566 380.542 64.989 374.635 64.989 374.635L74.1918 368.229Z" fill="#A48585"/>
<path d="M71.5787 373.387C72.9043 372.68 73.1315 372.971 73.6995 371.931C74.3055 370.891 72.0711 370.6 73.4723 369.227C74.9115 367.813 76.5778 366.482 75.5931 364.36C74.154 361.282 72.0711 363.403 70.8213 364.734C70.026 365.608 68.4732 363.528 66.6933 364.942C65.292 366.024 66.0116 366.856 64.7618 367.896C64.0044 368.52 61.6564 368.187 61.0504 370.101C59.9143 373.637 63.1712 374.677 62.4895 378.046C61.6942 381.998 69.7609 383.496 70.026 382.497C70.2911 381.291 67.8294 379.502 68.1703 378.462C68.7005 376.84 69.42 377.755 70.8213 378.046C72.3362 378.379 74.1162 377.173 71.8817 376.091C69.6473 374.926 70.3668 374.053 71.5787 373.387Z" fill="black"/>
<path opacity="0.57" d="M74.2729 462.596C74.0133 471.894 55.6511 480.513 55.6511 480.513L56.2076 466.035L74.2729 462.596Z" fill="#1F1F39"/>
<path d="M66.3663 389.857C69.2947 388.731 70.9347 392.567 73.3945 392.483C74.8783 392.442 74.7221 391.024 75.3078 390.149C75.6983 389.648 76.5182 389.899 77.6896 389.899C80.7742 389.857 89.4033 455.435 89.4033 455.435C89.4033 455.435 82.5313 460.771 76.2839 461.271C70.0366 461.772 59.1428 458.019 59.1428 455.685C59.1428 453.35 60.8218 393.817 60.8218 393.817C60.8218 393.817 63.3988 390.983 66.3663 389.857Z" fill="white"/>
<path d="M76.6011 389.65C96.7281 395.271 105.191 409.51 112.776 409.26C117.313 409.135 126.194 389.4 129.053 390.399C131.76 391.357 137.554 394.063 137.096 395.396C136.029 398.477 121.849 421.834 113.882 422.209C106.296 422.584 91.4295 411.301 88.0369 414.506C85.521 416.88 86.5502 430.037 87.4269 434.325C88.3037 438.614 96.8043 458.016 94.4409 460.264C91.6201 462.929 87.5032 464.178 83.3863 459.182C80.8704 456.142 78.0877 439.738 77.4016 428.704C76.7154 417.671 80.6798 413.965 78.812 401.808L76.6011 389.65Z" fill="#002333"/>
<path d="M68.1326 421.518C71.3896 431.211 71.8819 439.988 72.1849 445.022C72.4879 450.014 76.616 459.166 74.1164 463.742C68.4356 474.1 55.0289 472.893 53.7791 471.271C52.1506 469.15 53.4383 464.074 54.6123 459.207C55.5591 455.255 52.7566 443.732 52.8323 436.411C52.8702 434.705 52.7944 433.291 52.6051 432.334C52.4536 431.544 52.2642 430.712 52.0749 429.921C51.2417 426.26 50.1434 422.683 49.9162 421.102C49.8783 420.894 49.8783 420.728 49.8783 420.603V420.561C48.6285 421.518 34.0478 432.417 31.8891 436.328C29.3138 441.028 24.7691 459.79 24.4661 461.703C21.7015 461.62 16.0586 462.161 15.1497 461.495C15.3769 456.004 19.2398 439.156 22.6483 431.128C26.9657 420.936 38.8575 409.662 46.9243 400.802C52.3021 394.894 65.7088 389.487 65.7088 389.487C66.4284 392.981 64.0803 409.371 68.1326 421.518Z" fill="#002333"/>
<path opacity="0.28" d="M49.9919 420.561L50.0297 421.227C50.257 422.891 51.3175 426.385 52.1507 429.921C52.34 430.753 52.5294 431.543 52.6809 432.334C52.8702 433.249 52.9081 434.663 52.9081 436.411C52.9081 437.825 53.2111 439.406 53.1354 441.111C53.2869 440.82 53.0975 440.529 53.249 440.155C54.0443 438.199 55.6729 420.436 55.029 416.817C55.029 416.817 51.5447 418.731 49.9919 420.561Z" fill="#1F1F39"/>
<path opacity="0.18" d="M72.6392 394.686C72.3363 394.478 69.0035 400.052 65.1027 402.049C64.0044 402.59 62.8683 403.006 61.6564 403.048C58.1343 403.214 50.7114 402.174 46.2803 401.508C47.7195 400.094 49.3479 397.973 51.1279 396.392C54.347 397.557 59.4598 399.304 61.3155 399.137C62.6789 398.971 64.0044 398.597 65.1784 398.014C67.4507 396.974 69.3822 395.393 70.8592 394.021C71.6167 393.313 71.7303 392.232 72.6014 392.232C73.7754 392.19 73.018 394.977 72.6392 394.686Z" fill="#1F1F39"/>
<path d="M74.6845 392.648C74.6466 392.024 74.2679 390.984 73.0181 391.025C72.1092 391.067 71.9955 391.483 71.2381 392.19C68.89 394.395 65.4058 397.057 61.2778 397.515C57.1497 397.972 47.8332 391.941 41.7358 393.313C35.6384 394.686 33.7448 400.676 24.9206 402.132C16.1343 403.588 6.70417 399.387 4.12888 399.844C1.5157 400.302 -0.0370102 400.926 0.000862122 402.049C0.0387344 403.172 1.32631 405.044 3.14417 405.876C4.96202 406.708 20.9819 408.081 25.2236 407.499C32.1542 406.542 38.1379 399.761 42.6068 399.387C47.0757 399.012 56.4302 401.883 61.6565 401.633C67.4888 401.342 72.2985 393.937 72.6772 394.229C73.056 394.52 73.3968 394.811 74.1543 394.603C74.6466 394.395 74.7223 393.272 74.6845 392.648Z" fill="#02ACAB"/>
<path d="M9.2038 498.81C9.43103 497.936 9.65829 497.063 9.88552 496.189C5.87109 491.821 4.09116 485.789 5.68178 480.173C7.19666 474.848 11.4762 471.146 16.6647 469.856C19.808 469.108 23.2544 469.232 26.7007 470.397C26.7007 470.397 26.7007 470.397 26.7386 470.397C32.1164 472.269 36.3959 475.972 38.441 480.506C40.0316 484.042 40.3346 487.828 39.047 491.613C38.8576 492.112 38.6304 492.82 38.5925 493.485C38.9712 493.776 38.8576 493.818 38.8197 494.068C37.4185 499.517 36.3202 505.591 35.2598 510.5C34.9568 511.914 34.6538 513.203 34.3509 514.368C33.8964 516.115 33.404 517.571 32.9117 518.57C32.4194 519.527 31.927 520.067 31.3589 520.067C28.4428 520.192 4.65922 515.325 5.94687 511.29C6.51495 509.543 7.80254 504.218 9.2038 498.81ZM35.8278 491.946C36.0551 492.029 36.2445 492.112 36.4338 492.196C36.6232 491.78 36.7746 491.364 36.9261 490.906C37.9865 487.744 37.8729 484.5 36.5474 481.546C34.7674 477.511 30.9424 474.266 26.0948 472.602C25.4509 472.394 24.8071 472.186 24.1632 472.061C21.8909 471.562 19.6186 471.562 17.5356 472.02C12.8395 473.018 8.97663 476.221 7.65111 480.88C6.40133 485.29 7.87836 489.117 10.7945 492.778C10.8324 492.612 10.8702 492.487 10.908 492.32C11.8927 488.66 12.6502 486.164 13.1046 485.498C13.2183 485.332 13.294 485.29 13.3697 485.29C14.165 485.623 29.276 489.159 35.8278 491.946Z" fill="#025175"/>
<path d="M27.6853 512.371C52.2642 506.256 56.165 506.381 56.9603 504.592C57.7935 502.804 58.5888 496.231 60.2173 500.391C61.8458 504.551 64.8755 511.955 62.8683 512.413C60.8611 512.871 59.7628 508.503 57.4148 509.085C55.0667 509.667 34.275 513.037 27.193 517.363C20.1109 521.69 27.6853 512.371 27.6853 512.371Z" fill="#025175"/>
<g opacity="0.1">
<path opacity="0.1" d="M9.2038 498.81C9.43103 497.936 9.65829 497.063 9.88552 496.189C5.87109 491.821 4.09116 485.789 5.68178 480.173C7.19666 474.848 11.4762 471.146 16.6647 469.856C19.808 469.108 23.2544 469.232 26.7007 470.397C26.7007 470.397 26.7007 470.397 26.7386 470.397C32.1164 472.269 36.3959 475.972 38.441 480.506C40.0316 484.042 40.3346 487.828 39.047 491.613C38.8576 492.112 38.6304 492.82 38.5925 493.485C38.9712 493.776 38.8576 493.818 38.8197 494.068C37.4185 499.517 36.3202 505.591 35.2598 510.5C34.9568 511.914 34.6538 513.203 34.3509 514.368C33.8964 516.115 33.404 517.571 32.9117 518.57C32.4194 519.527 31.927 520.067 31.3589 520.067C28.4428 520.192 4.65922 515.325 5.94687 511.29C6.51495 509.543 7.80254 504.218 9.2038 498.81ZM36.4338 492.196C36.6232 491.78 36.7746 491.364 36.9261 490.906C37.9865 487.744 37.8729 484.5 36.5474 481.546C34.7674 477.511 30.9424 474.266 26.0948 472.602C25.4509 472.394 24.8071 472.186 24.1632 472.061C21.8909 471.562 19.6186 471.562 17.5356 472.02C12.8395 473.018 8.97663 476.221 7.65111 480.88C6.40133 485.29 7.87836 489.117 10.7945 492.778C10.8324 492.612 10.8702 492.487 10.908 492.32C11.9685 488.202 12.0063 486.372 13.1046 485.498C13.1804 485.415 13.294 485.373 13.3697 485.29C14.1272 484.832 29.276 489.117 35.8278 491.904C36.0551 492.029 36.2445 492.112 36.4338 492.196Z" fill="white"/>
<path opacity="0.1" d="M27.6853 512.371C52.2642 506.256 56.165 506.381 56.9603 504.592C57.7935 502.804 58.5888 496.231 60.2173 500.391C61.8458 504.551 64.8755 511.955 62.8683 512.413C60.8611 512.871 59.7628 508.503 57.4148 509.085C55.0667 509.667 34.275 513.037 27.193 517.363C20.1109 521.69 27.6853 512.371 27.6853 512.371Z" fill="white"/>
</g>
<path d="M23.1785 461.578C23.6329 463.45 23.595 462.493 24.4661 464.823C25.3371 467.153 28.2154 469.732 27.1171 470.273C26.0188 470.814 24.9584 470.065 24.3904 469.857C23.7844 469.649 24.6555 470.897 24.1253 472.145C23.5951 473.393 20.7925 474.516 19.3533 473.767C17.9142 473.018 16.8159 471.271 16.4372 468.858C16.0585 466.446 15.907 461.453 16.9296 461.537C20.0729 461.745 23.1785 461.578 23.1785 461.578Z" fill="#A48585"/>
<path d="M313.803 575.454C306.653 525.563 310.193 396.997 304.353 364.807C298.336 331.52 285.914 294.708 259.264 273.953C232.578 253.198 183.702 218.892 203.345 243.133C223.023 267.374 290.975 343.385 289.878 369.388C288.497 402.44 290.232 591.471 290.232 591.471C290.232 591.471 316.74 595.779 313.803 575.454Z" fill="#419F81"/>
<path d="M300.063 360.767C309.041 263.014 352.164 214.999 403.204 190.717C454.245 166.436 441.909 172.859 441.909 172.859C439.788 220.874 441.131 297.557 302.29 371.733L300.063 360.767Z" fill="#419F81"/>
<path opacity="0.17" d="M328.194 345.702C446.049 273.815 444.941 201.481 447.009 155.07C447.009 155.07 448.339 154.381 448.375 154.3C448.339 154.259 447.526 154.584 444.941 155.72C383.779 198.114 342.746 295.438 328.194 345.702Z" fill="#1F1F39"/>
<path d="M298.154 455.583C277.6 410.187 248.811 395.735 220.092 394.4C191.373 393.026 198.402 393.615 198.402 393.615C207.383 416.391 219.453 453.698 298.899 461.317L298.154 455.583Z" fill="#419F81"/>
<path opacity="0.17" d="M283.769 460.037C217.81 449.301 206.752 415.071 198.387 393.638C198.387 393.638 197.678 393.559 197.643 393.519C197.643 393.479 198.068 393.479 199.451 393.519C234.504 401.482 269.025 439.238 283.769 460.037Z" fill="#1F1F39"/>
<path d="M304.579 348.516C301.02 315.291 300.912 286.785 301.02 264.323C301.128 245.956 303.824 232.463 305.226 214.954C306.305 201.773 305.73 176.386 305.73 176.386C305.73 176.386 295.233 171.395 295.952 178.336C296.671 185.277 298.54 195.377 295.197 223.572C294.154 232.502 292.608 242.017 291.063 260.462C289.804 275.398 290.344 345.397 289.625 352.338C288.906 359.279 299.187 360.215 299.187 360.215L304.579 348.516Z" fill="#419F81"/>
<path d="M400.889 98.4645C400.889 152.842 356.149 196.929 300.966 196.929C250.459 196.929 208.69 159.989 201.961 112.07C201.35 107.635 201 103.071 201 98.4645C201 92.1355 201.612 85.8927 202.791 79.9082C209.695 44.1303 236.303 15.1981 271.038 4.47761C273.659 3.65959 276.324 2.97073 279.033 2.36797C286.068 0.818026 293.408 0 300.966 0C356.149 0 400.889 44.0873 400.889 98.4645Z" fill="#F4AD00"/>
<path opacity="0.78" d="M279.033 2.368C277.722 10.5052 275.887 19.4174 273.047 28.2004C250.721 36.4238 233.463 54.894 227.128 77.7987C220.049 79.6931 211.967 80.4681 202.835 79.9084C209.738 44.1304 236.346 15.1981 271.081 4.47764C273.659 3.65962 276.324 2.97075 279.033 2.368Z" fill="#F4C83D"/>
<path opacity="0.19" d="M299.219 170.882C340.506 170.882 373.975 137.9 373.975 97.216C373.975 56.5317 340.506 23.5506 299.219 23.5506C257.932 23.5506 224.463 56.5317 224.463 97.216C224.463 137.9 257.932 170.882 299.219 170.882Z" fill="#D39333"/>
<path d="M354.358 47.6608C341.163 35.9071 323.686 28.7601 304.506 28.7601C263.479 28.7601 230.186 61.5673 230.186 101.995C230.186 120.896 237.439 138.117 249.367 151.12C234.337 137.73 224.899 118.355 224.899 96.7854C224.899 56.3577 258.192 23.5506 299.219 23.5506C321.108 23.5506 340.77 32.8503 354.358 47.6608Z" fill="#CC820A"/>
<path d="M379.349 102.77C379.349 143.198 346.056 176.005 305.03 176.005C283.184 176.005 263.523 166.705 249.891 151.895C263.086 163.648 280.562 170.795 299.743 170.795C340.769 170.795 374.062 137.988 374.062 97.5606C374.062 78.6599 366.81 61.4383 354.882 48.4361C369.912 61.8258 379.349 81.2001 379.349 102.77Z" fill="#F4C83D"/>
<path d="M226.74 127.784C242.158 125.125 244.366 117.571 247.25 94.0242C249.244 116.338 251.808 124.816 267.475 127.36C253.802 133.719 248.995 136.031 246.538 161.852C243.155 135.723 240.164 133.41 226.74 127.784Z" fill="white"/>
<path d="M373.387 57.3345C395.859 53.4021 399.089 42.0768 403.243 7C406.154 40.268 409.882 52.8909 432.744 56.7053C412.793 66.1824 405.799 69.6429 402.249 108.102C397.35 69.1317 392.948 65.7105 373.387 57.3345Z" fill="white"/>
<path d="M307.841 496.273C318.267 496.899 332.004 495.257 341.47 488.456C359.049 475.869 378.444 486.775 384.564 492.677C385.454 493.537 386.273 493.967 386.949 493.967C390.899 494.123 390.294 480.482 375.526 459.061C352.964 426.305 309.727 466.644 302.503 495.726C301.969 497.876 298.944 495.726 307.841 496.273Z" fill="#419F81"/>
<path opacity="0.17" d="M307.841 496.274C318.268 496.899 332.004 495.257 341.47 488.456C359.049 475.869 378.444 486.775 384.564 492.677C385.454 493.537 386.273 493.967 386.949 493.967C376.166 480.247 362.145 469.615 352.217 472.898C332.538 479.426 325.847 493.889 307.841 496.274Z" fill="#1F1F39"/>
<path opacity="0.23" d="M261.714 591.75C261.714 594.022 270.172 596.659 279.886 596.659C289.636 596.659 297.503 594.834 297.503 592.562C297.503 590.29 289.599 588.464 279.886 588.464C270.172 588.424 261.714 589.478 261.714 591.75Z" fill="#32323F"/>
<path d="M281.031 593.576C288.196 595.564 296.173 594.915 298.205 590.412C300.236 585.909 284.281 575.117 278.556 577.836C272.831 580.513 275.564 587.126 269.544 586.598C263.524 586.03 256.839 588.221 263.82 592.237C265.925 593.414 273.238 591.426 281.031 593.576Z" fill="#66383D"/>
<path opacity="0.23" d="M377.279 589.073C377.279 590.777 370.926 592.765 363.577 592.765C356.227 592.765 350.318 591.385 350.318 589.682C350.318 587.978 356.264 586.598 363.577 586.598C370.889 586.598 377.279 587.369 377.279 589.073Z" fill="#32323F"/>
<path d="M362.727 590.452C357.335 591.953 351.315 591.466 349.763 588.099C348.212 584.732 360.252 576.578 364.574 578.606C368.895 580.635 366.827 585.625 371.369 585.178C375.875 584.773 380.935 586.395 375.691 589.438C374.102 590.331 368.599 588.829 362.727 590.452Z" fill="#66383D"/>
<path d="M340.124 584.61C340.124 584.61 340.124 591.385 335.914 596.335C334.104 598.444 331.519 600.229 327.862 601C325.868 601.406 309.543 597.633 304.372 592.278C303.929 591.791 303.56 591.345 303.301 590.817L309.432 577.186C309.432 577.186 318.444 566.841 327.456 570.006C336.431 573.129 340.124 584.61 340.124 584.61Z" fill="#66383D"/>
<path opacity="0.22" d="M335.914 596.294C334.104 598.404 331.518 600.189 327.862 600.959C325.868 601.365 309.543 597.592 304.372 592.237C309.506 591.426 319.183 591.669 324.206 592.805C327.936 593.657 332.774 595.239 335.914 596.294Z" fill="#1F1F3D"/>
<path d="M261.013 596.497C261.013 596.497 261.05 598.769 259.646 600.473C259.055 601.203 258.206 601.811 256.95 602.095C256.285 602.258 250.782 601.081 249.009 599.337C248.861 599.174 248.714 599.012 248.64 598.85L250.634 594.225C250.634 594.225 253.589 590.696 256.654 591.71C259.72 592.684 261.013 596.497 261.013 596.497Z" fill="#66383D"/>
<path opacity="0.22" d="M259.646 600.473C259.055 601.203 258.206 601.811 256.95 602.095C256.285 602.258 250.782 601.081 249.009 599.337C250.708 599.012 253.958 599.053 255.657 599.377C256.95 599.661 258.575 600.148 259.646 600.473Z" fill="#1F1F3D"/>
<path d="M296.727 597.146L301.085 592.034C301.085 592.034 300.088 590.939 303.08 594.225C306.071 597.511 303.966 603.15 302.341 603.272C300.716 603.394 287.346 601.852 289.71 600.391C292.111 598.972 295.656 598.404 296.727 597.146Z" fill="#66383D"/>
<path d="M268.473 599.945C273.127 607.775 274.456 600.31 274.124 598.647C273.792 597.024 271.576 593.9 269.692 594.631C267.808 595.361 267.218 597.876 268.473 599.945Z" fill="#66383D"/>
<path d="M344.814 586.557C350.133 586.314 346.883 583.15 345.959 582.825C345.036 582.501 342.82 582.825 342.598 584.164C342.377 585.503 343.411 586.639 344.814 586.557Z" fill="#66383D"/>
<path opacity="0.15" d="M66.4476 516.496C67.0016 516.455 67.4818 515.928 67.9619 515.035C66.226 514.832 64.4163 514.345 62.6804 513.656C61.8679 513.331 61.0553 513.007 60.2797 512.601C52.376 508.706 45.5064 501.08 44.8785 495.765C43.5489 500.998 42.2562 506.232 41.7022 507.936C40.4095 511.871 63.6037 516.617 66.4476 516.496Z" fill="#1F1F39"/>
<path d="M339.348 602.987C340.235 603.515 341.306 604.001 342.414 604.407C344.039 604.975 345.775 605.34 347.289 605.381C353.642 605.543 353.789 604.853 353.789 607.206C353.789 609.559 359.292 611.182 363.724 609.072C368.156 606.963 371.961 614.711 381.563 614.143C386.66 613.86 378.313 608.991 374.657 607.206C371 605.421 379.606 606.03 379.606 602.054C379.606 597.754 370.668 600.269 366.088 598.768C365.571 598.606 365.128 598.403 364.759 598.119C363.429 597.145 361.25 596.294 358.554 595.726C353.789 594.752 347.363 594.671 340.9 596.456C334.769 598.119 336.024 600.959 339.348 602.987Z" fill="#0088BE"/>
<path opacity="0.23" d="M339.348 602.988C340.198 602.704 341.084 602.379 341.971 602.055C349.099 599.296 348.249 600.797 354.233 602.623C360.659 604.57 362.616 603.11 359.846 600.432C358.037 598.688 355.968 598.241 358.517 595.686C353.752 594.712 347.326 594.631 340.863 596.416C334.769 598.12 336.024 600.959 339.348 602.988Z" fill="white"/>
<path d="M213.295 593.981C215.991 593.413 217.284 594.306 218.133 595.766C219.537 598.281 219.537 602.541 222.861 603.92C228.068 606.071 244.134 612.724 250.524 609.194C257.098 605.543 236.009 604.488 233.165 600.797C230.321 597.105 235.455 592.521 239.481 595.563C243.506 598.565 243.987 589.803 247.643 589.884C254.808 590.046 255.362 590.33 259.314 586.598C261.345 584.651 260.163 583.19 257.172 582.582C254.365 582.014 249.933 582.257 245.058 583.717C235.049 586.719 232.611 583.515 227.92 582.014C223.23 580.513 200.073 583.028 197.746 588.748C195.419 594.427 205.945 595.563 213.295 593.981Z" fill="#0088BE"/>
<path opacity="0.23" d="M213.295 593.982C215.991 593.414 217.284 594.306 218.133 595.767C218.798 596.132 219.721 596.578 221.051 596.943C226.185 598.404 227.92 598.12 228.29 593.941C228.659 589.722 228.991 591.832 231.171 591.913C233.387 591.994 238.52 593.13 238.631 590.331C238.705 587.491 245.427 586.436 251.447 585.706C255.99 585.178 256.137 583.921 257.172 582.542C254.365 581.974 249.933 582.217 245.057 583.677C235.049 586.679 232.611 583.475 227.92 581.974C223.23 580.473 200.073 582.988 197.746 588.708C195.419 594.428 205.945 595.564 213.295 593.982Z" fill="white"/>
<path d="M189.509 396.981C189.953 398.279 190.654 399.09 191.652 399.009C194.348 398.806 195.714 394.952 194.2 392.031C192.649 389.11 194.496 389.475 194.939 388.623C196.822 384.972 199.445 387.934 200.109 387.853C202.51 387.569 203.138 384.891 201.993 384.12C201.956 384.08 201.882 384.039 201.845 384.039C201.734 383.999 201.624 383.958 201.513 383.958C195.197 383.147 191.615 384.283 190.433 387.528C189.103 391.058 188.623 394.303 189.509 396.981Z" fill="#0088BE"/>
<path opacity="0.23" d="M192.501 394.1C191.208 395.642 190.211 396.534 189.51 396.981C189.953 398.279 190.654 399.09 191.652 399.009C194.348 398.806 195.714 394.952 194.2 392.031C192.649 389.11 194.496 389.475 194.939 388.623C196.822 384.972 199.445 387.934 200.109 387.853C202.51 387.569 203.138 384.891 201.993 384.12C200.405 385.459 198.374 385.662 197.783 385.54C197.081 385.418 193.424 385.865 192.649 388.745C192.28 390.206 193.72 392.64 192.501 394.1Z" fill="white"/>
<path opacity="0.18" d="M190.027 397.752C189.99 397.67 189.99 397.589 189.99 397.589C189.916 397.67 189.916 397.752 190.027 397.752Z" fill="#1F1F39"/>
<path d="M273.635 140.383L272.959 136.026C276.938 135.356 279.341 134.611 280.167 133.792C281.068 132.973 281.519 131.409 281.519 129.101L281.519 74.2562C281.519 71.9477 281.068 70.3839 280.167 69.5648C279.341 68.7456 276.938 68.001 272.959 67.3308L273.635 62.9745L303.369 62.9745C311.554 62.9745 317.823 64.6127 322.178 67.8893C326.533 71.0913 328.711 75.5966 328.711 81.405C328.711 86.0219 327.435 89.9314 324.882 93.1335C322.404 96.2611 319.738 98.2717 316.885 99.1653L316.885 99.9472C321.69 100.841 325.708 103.075 328.936 106.649C332.165 110.224 333.779 114.58 333.779 119.718C333.779 124.782 331.527 129.51 327.022 133.904C322.591 138.223 315.758 140.383 306.523 140.383L273.635 140.383ZM292.444 97.6015L298.751 97.6015C304.908 97.6015 309.414 96.2983 312.267 93.692C315.195 91.0112 316.66 87.3623 316.66 82.7454C316.66 73.5115 311.103 68.8946 299.99 68.8946L292.444 68.8946L292.444 97.6015ZM292.444 129.548C292.444 131.707 293.007 133.01 294.133 133.457C295.26 134.202 297.55 134.574 301.004 134.574C308.212 134.574 313.393 133.308 316.547 130.776C319.701 128.245 321.277 124.596 321.277 119.83C321.277 112.904 318.462 108.139 312.83 105.532C310.052 104.192 306.898 103.522 303.369 103.522L292.444 103.522L292.444 129.548Z" fill="#CC820A"/>
<path d="M297.381 53.022L297.381 65.1861" stroke="#CC820A" stroke-width="5" stroke-linecap="round"/>
<path d="M309.545 53.022L309.545 65.1861" stroke="#CC820A" stroke-width="5" stroke-linecap="round"/>
<path d="M297.381 138.257L297.381 150.421" stroke="#CC820A" stroke-width="5" stroke-linecap="round"/>
<path d="M309.545 138.257L309.545 150.421" stroke="#CC820A" stroke-width="5" stroke-linecap="round"/>
<path d="M295.169 50.1339L295.169 62.2981" stroke="#F4C83D" stroke-width="5" stroke-linecap="round"/>
<path d="M307.333 50.1339L307.333 62.2981" stroke="#F4C83D" stroke-width="5" stroke-linecap="round"/>
<path d="M295.169 135.369L295.169 147.533" stroke="#F4C83D" stroke-width="5" stroke-linecap="round"/>
<path d="M307.333 135.369L307.333 147.533" stroke="#F4C83D" stroke-width="5" stroke-linecap="round"/>
<path d="M271.423 137.495L270.747 133.138C274.727 132.468 277.129 131.723 277.955 130.904C278.856 130.085 279.307 128.521 279.307 126.213L279.307 71.3681C279.307 69.0597 278.856 67.4959 277.955 66.6767C277.129 65.8576 274.727 65.1129 270.747 64.4427L271.423 60.0864L301.157 60.0864C309.342 60.0864 315.612 61.7247 319.967 65.0012C324.322 68.2033 326.499 72.7085 326.499 78.5169C326.499 83.1339 325.223 87.0434 322.67 90.2454C320.192 93.373 317.526 95.3836 314.673 96.2772L314.673 97.0591C319.479 97.9527 323.496 100.187 326.725 103.761C329.953 107.336 331.568 111.692 331.568 116.83C331.568 121.894 329.315 126.622 324.81 131.016C320.38 135.335 313.547 137.495 304.311 137.495L271.423 137.495ZM290.232 94.7134L296.54 94.7134C302.697 94.7134 307.202 93.4103 310.055 90.8039C312.984 88.1231 314.448 84.4743 314.448 79.8573C314.448 70.6235 308.891 66.0065 297.778 66.0065L290.232 66.0065L290.232 94.7134ZM290.232 126.66C290.232 128.819 290.795 130.122 291.922 130.569C293.048 131.314 295.338 131.686 298.792 131.686C306.001 131.686 311.182 130.42 314.335 127.888C317.489 125.356 319.066 121.708 319.066 116.942C319.066 110.016 316.25 105.25 310.618 102.644C307.84 101.304 304.687 100.634 301.157 100.634L290.232 100.634L290.232 126.66Z" fill="#F4C83D"/>
</svg>
