<svg width="108" height="108" viewBox="0 0 108 108" fill="none" xmlns="http://www.w3.org/2000/svg">
<g filter="url(#filter0_d_1681_4)">
<circle cx="54" cy="50" r="50" fill="#02ACAB"/>
</g>
<path d="M40.4322 59.3085H49.563V63.4693H35V36.2696H40.4322V59.3085Z" fill="white"/>
<path d="M60.1322 36C63.5225 36 66.3349 36.8733 68.5695 38.6198C70.804 40.3663 72.2809 42.7421 73 45.7472H67.2981C66.7074 44.2832 65.7827 43.1274 64.5242 42.2798C63.2913 41.4322 61.8017 41.0085 60.0551 41.0085C58.6168 41.0085 57.3197 41.368 56.1639 42.0872C55.0081 42.8064 54.1092 43.8337 53.4671 45.1693C52.825 46.5049 52.5039 48.0716 52.5039 49.8696C52.5039 51.6418 52.825 53.1957 53.4671 54.5313C54.1092 55.8668 55.0081 56.8942 56.1639 57.6134C57.3197 58.3325 58.6168 58.6921 60.0551 58.6921C61.8017 58.6921 63.2913 58.2683 64.5242 57.4208C65.7827 56.5732 66.7074 55.4174 67.2981 53.9534H73C72.2809 56.9584 70.804 59.3342 68.5695 61.0808C66.3349 62.8273 63.5225 63.7006 60.1322 63.7006C57.5381 63.7006 55.2393 63.1227 53.2359 61.9669C51.2582 60.7854 49.7172 59.1416 48.6127 57.0355C47.534 54.9294 46.9946 52.5407 46.9946 49.8696C46.9946 47.1727 47.534 44.7712 48.6127 42.6651C49.7172 40.559 51.2582 38.928 53.2359 37.7722C55.2136 36.5907 57.5124 36 60.1322 36Z" fill="white"/>
<defs>
<filter id="filter0_d_1681_4" x="0" y="0" width="108" height="108" filterUnits="userSpaceOnUse" color-interpolation-filters="sRGB">
<feFlood flood-opacity="0" result="BackgroundImageFix"/>
<feColorMatrix in="SourceAlpha" type="matrix" values="0 0 0 0 0 0 0 0 0 0 0 0 0 0 0 0 0 0 127 0" result="hardAlpha"/>
<feOffset dy="4"/>
<feGaussianBlur stdDeviation="2"/>
<feComposite in2="hardAlpha" operator="out"/>
<feColorMatrix type="matrix" values="0 0 0 0 0 0 0 0 0 0 0 0 0 0 0 0 0 0 0.25 0"/>
<feBlend mode="normal" in2="BackgroundImageFix" result="effect1_dropShadow_1681_4"/>
<feBlend mode="normal" in="SourceGraphic" in2="effect1_dropShadow_1681_4" result="shape"/>
</filter>
</defs>
</svg>
