<svg width="29" height="22" viewBox="0 0 29 22" fill="none" xmlns="http://www.w3.org/2000/svg">
<path d="M11 21C5.47715 21 1 16.5228 1 11C1 5.47715 5.47715 1 11 1" stroke="#02ACAB" stroke-width="2"/>
<path d="M21.7074 10.2929C21.3168 9.90234 20.6837 9.90234 20.2931 10.2929L13.9292 16.6568C13.5387 17.0473 13.5387 17.6805 13.9292 18.071C14.3197 18.4616 14.9529 18.4616 15.3434 18.071L21.0002 12.4142L26.6571 18.071C27.0476 18.4616 27.6808 18.4616 28.0713 18.071C28.4618 17.6805 28.4618 17.0474 28.0713 16.6568L21.7074 10.2929ZM20.0002 11C20.0002 15.9705 15.9708 20 11.0002 20L11.0002 22C17.0754 22 22.0002 17.0751 22.0002 11L20.0002 11Z" fill="#02ACAB"/>
<path d="M11.0002 1C16.5231 1 21.0002 5.47715 21.0002 11" stroke="#02ACAB" stroke-miterlimit="4.13357" stroke-linecap="round" stroke-dasharray="3 3"/>
<path d="M11.3999 5.39999V10.5549C11.3999 10.8481 11.5285 11.1265 11.7518 11.3165L14.1999 13.4" stroke="#02ACAB" stroke-width="2" stroke-linecap="round"/>
</svg>
