<svg width="140" height="131" viewBox="0 0 140 131" fill="none" xmlns="http://www.w3.org/2000/svg">
<path d="M113.853 34.2076V11.6733C113.853 11.4568 113.923 11.246 114.053 11.0729L120.835 2.03985C121.23 1.51476 122.015 1.50573 122.421 2.02161L129.544 11.0675C129.683 11.2438 129.759 11.4617 129.759 11.6862V34.1511C129.759 34.4103 129.658 34.6605 129.476 34.8446C127.127 37.2126 125.384 38.1236 121.737 38.6353C121.658 38.6465 121.575 38.6477 121.495 38.6391C118.195 38.2829 116.408 37.6869 114.07 34.8264C113.928 34.6521 113.853 34.4327 113.853 34.2076Z" fill="#002333" stroke="#002333" stroke-width="2" stroke-linecap="round" stroke-linejoin="round"/>
<path d="M132.306 24.7183C128.09 19.0097 121.974 24.4623 124.784 28.8794C124.818 28.9315 124.858 28.9812 124.901 29.0255L134.391 38.8027C135.114 39.5475 136.353 38.8337 136.071 37.8346L132.457 25.0283C132.426 24.9182 132.374 24.8103 132.306 24.7183Z" fill="#02ACAB" stroke="#002333" stroke-width="2" stroke-linecap="round" stroke-linejoin="round"/>
<path d="M111.116 24.7183C115.332 19.0097 121.448 24.4623 118.638 28.8794C118.605 28.9315 118.565 28.9812 118.522 29.0255L109.032 38.8027C108.309 39.5475 107.07 38.8337 107.352 37.8346L110.965 25.0283C110.996 24.9182 111.048 24.8103 111.116 24.7183Z" fill="#02ACAB" stroke="#002333" stroke-width="2" stroke-linecap="round" stroke-linejoin="round"/>
<path d="M52.2947 10.8804V32.5684C52.2947 33.1207 52.7424 33.5684 53.2947 33.5684H83.1608" stroke="#002333" stroke-width="2" stroke-linecap="round"/>
<path d="M60.6131 26.535V33.5682M68.7127 21.5436V33.5682M76.1556 17.006V33.5682M60.1753 20.6361C61.4158 16.9304 66.3485 9.42819 76.1556 9.06519" stroke="#002333" stroke-width="2" stroke-linecap="round" stroke-linejoin="round"/>
<path d="M29.8661 21.6166C29.8661 29.4691 23.4161 35.8563 15.433 35.8563C7.44997 35.8563 1 29.4691 1 21.6166C1 13.764 7.44997 7.37683 15.433 7.37683C23.4161 7.37683 29.8661 13.764 29.8661 21.6166Z" fill="#F5D451" stroke="#002333" stroke-width="2"/>
<path d="M10.2456 28.7058C9.79592 28.7058 9.4314 28.3413 9.4314 27.8916C9.4314 27.4419 9.79592 27.0774 10.2456 27.0774H10.7053C11.2576 27.0774 11.7053 26.6297 11.7053 26.0774V17.4339C11.7053 16.8816 11.2576 16.4339 10.7053 16.4339H10.2456C9.79592 16.4339 9.4314 16.0694 9.4314 15.6197C9.4314 15.1701 9.79592 14.8055 10.2456 14.8055H15.535C17.2425 14.8055 18.543 15.1202 19.4366 15.7495C20.3462 16.3631 20.8009 17.2599 20.8009 18.4399C20.8009 19.0692 20.6254 19.6671 20.2743 20.2335C19.8914 20.8627 19.9629 22.0619 20.4453 22.6186C20.4848 22.6641 20.5235 22.7108 20.5616 22.7587C21.0243 23.3408 21.2557 24.0566 21.2557 24.9062C21.2557 26.0075 20.8727 26.9201 20.1068 27.6438C19.3408 28.3518 18.152 28.7058 16.5404 28.7058H10.2456ZM13.6202 19.9651C13.6202 20.5174 14.0679 20.9651 14.6202 20.9651H16.6122C17.3143 20.9651 17.8488 20.7605 18.2159 20.3515C18.5829 19.9424 18.7664 19.3918 18.7664 18.6995C18.7664 17.1891 17.777 16.4339 15.7983 16.4339H14.6202C14.0679 16.4339 13.6202 16.8816 13.6202 17.4339V19.9651ZM13.6014 26.0487C13.5985 26.603 14.0471 27.0538 14.6014 27.0538H16.4446C17.3382 27.0538 18.0244 26.8571 18.5031 26.4638C18.9818 26.0547 19.2212 25.449 19.2212 24.6466C19.2212 23.9229 18.9898 23.3644 18.527 22.9711C18.0802 22.5777 17.434 22.3811 16.5882 22.3811H14.6151C14.0648 22.3811 13.6179 22.8257 13.6151 23.3759L13.6014 26.0487Z" fill="#002333"/>
<path d="M13.0911 15.0059V13.0073C13.0911 12.6186 13.4062 12.3035 13.7949 12.3035C14.1836 12.3035 14.4987 12.6186 14.4987 13.0073V15.0059C14.4987 15.3946 14.1836 15.7097 13.7949 15.7097C13.4062 15.7097 13.0911 15.3946 13.0911 15.0059Z" fill="#002333"/>
<path d="M15.9065 15.0059V13.0073C15.9065 12.6186 16.2216 12.3035 16.6103 12.3035C16.999 12.3035 17.3142 12.6186 17.3142 13.0073V15.0059C17.3142 15.3946 16.999 15.7097 16.6103 15.7097C16.2216 15.7097 15.9065 15.3946 15.9065 15.0059Z" fill="#002333"/>
<path d="M13.0911 30.226V28.5112C13.0911 28.1225 13.4062 27.8074 13.7949 27.8074C14.1836 27.8074 14.4987 28.1225 14.4987 28.5112V30.226C14.4987 30.6147 14.1836 30.9298 13.7949 30.9298C13.4062 30.9298 13.0911 30.6147 13.0911 30.226Z" fill="#002333"/>
<path d="M15.9065 30.226V28.5112C15.9065 28.1225 16.2216 27.8074 16.6103 27.8074C16.999 27.8074 17.3142 28.1225 17.3142 28.5112V30.226C17.3142 30.6147 16.999 30.9298 16.6103 30.9298C16.2216 30.9298 15.9065 30.6147 15.9065 30.226Z" fill="#002333"/>
<mask id="path-12-inside-1_1176_1343" fill="white">
<path fill-rule="evenodd" clip-rule="evenodd" d="M0 91.1029C13.9719 67.2524 40.0863 51.2058 69.9961 51.2058C99.9059 51.2058 126.02 67.2524 139.992 91.1029C126.02 114.953 99.9059 131 69.9961 131C40.0863 131 13.9719 114.953 0 91.1029Z"/>
</mask>
<path fill-rule="evenodd" clip-rule="evenodd" d="M0 91.1029C13.9719 67.2524 40.0863 51.2058 69.9961 51.2058C99.9059 51.2058 126.02 67.2524 139.992 91.1029C126.02 114.953 99.9059 131 69.9961 131C40.0863 131 13.9719 114.953 0 91.1029Z" fill="#02ACAB" fill-opacity="0.2"/>
<path d="M0 91.1029L-1.72569 90.092L-2.31791 91.1029L-1.7257 92.1138L0 91.1029ZM139.992 91.1029L141.718 92.1138L142.31 91.1029L141.718 90.092L139.992 91.1029ZM1.72569 92.1138C15.3491 68.8581 40.8168 53.2058 69.9961 53.2058V49.2058C39.3558 49.2058 12.5946 65.6467 -1.72569 90.092L1.72569 92.1138ZM69.9961 53.2058C99.1754 53.2058 124.643 68.8581 138.266 92.1138L141.718 90.092C127.398 65.6467 100.636 49.2058 69.9961 49.2058V53.2058ZM138.266 90.092C124.643 113.348 99.1754 129 69.9961 129V133C100.636 133 127.398 116.559 141.718 92.1138L138.266 90.092ZM69.9961 129C40.8168 129 15.3491 113.348 1.7257 90.092L-1.7257 92.1138C12.5946 116.559 39.3558 133 69.9961 133V129Z" fill="#002333" mask="url(#path-12-inside-1_1176_1343)"/>
<path d="M99.569 91.1029C99.569 107.304 86.2651 120.46 69.8274 120.46C53.3896 120.46 40.0857 107.304 40.0857 91.1029C40.0857 74.9016 53.3896 61.7463 69.8274 61.7463C86.2651 61.7463 99.569 74.9016 99.569 91.1029Z" fill="#02ACAB" stroke="#002333" stroke-width="2"/>
<path d="M65.6692 91.8576L69.1909 95.6664C69.6075 96.1169 70.3278 96.0895 70.7089 95.6086L73.636 91.9154C73.8257 91.676 74.1228 91.5339 74.4279 91.5465C83.7757 91.9342 82.2918 103.424 78.9847 105.712C78.845 105.808 78.6777 105.847 78.5078 105.847H60.9482C60.5651 105.847 60.2117 105.623 60.0502 105.276C55.5204 95.5321 58.9518 91.7177 64.9335 91.5428C65.2122 91.5347 65.4799 91.6529 65.6692 91.8576Z" fill="white" stroke="#002333" stroke-width="2"/>
<path d="M75.4149 83.0802C75.4149 86.2284 72.8269 88.802 69.6079 88.802C66.3888 88.802 63.8008 86.2284 63.8008 83.0802C63.8008 79.932 66.3888 77.3584 69.6079 77.3584C72.8269 77.3584 75.4149 79.932 75.4149 83.0802Z" fill="white" stroke="#002333" stroke-width="2"/>
</svg>
