<svg width="523" height="439" viewBox="0 0 523 439" fill="none" xmlns="http://www.w3.org/2000/svg">
<path d="M445.426 425.578C445.586 442.682 340.13 444.249 338.121 425.579C337.961 408.477 443.417 406.91 445.426 425.578Z" fill="#E6E6E6"/>
<path d="M362.919 366.205L355.081 370.573L360.069 387.321L367.905 388.049L372.181 378.583L362.919 366.205Z" fill="#9F616A"/>
<path d="M387.143 399.699V407.709L399.255 406.981L399.086 400.384L387.143 399.699Z" fill="#9F616A"/>
<path d="M360.068 270.087L364.343 324.699L377.88 404.796L399.255 401.883L392.13 338.534L394.98 280.282L360.068 270.087Z" fill="#002333"/>
<path d="M417.067 229.311L365.768 230.039L360.068 270.088L394.98 286.835L403.53 318.874L360.068 366.204L377.168 388.049C377.168 388.049 401.392 354.554 419.204 335.622C437.016 316.69 428.466 259.165 428.466 259.165L417.067 229.311Z" fill="#002333"/>
<path d="M386.43 125.913C395.087 125.913 402.105 118.741 402.105 109.893C402.105 101.046 395.087 93.8738 386.43 93.8738C377.773 93.8738 370.756 101.046 370.756 109.893C370.756 118.741 377.773 125.913 386.43 125.913Z" fill="#A48585"/>
<path d="M380.73 120.816V136.835L391.417 154.311C391.417 154.311 407.805 141.932 404.242 139.019C400.68 136.107 399.967 113.534 399.967 113.534L380.73 120.816Z" fill="#A48585"/>
<path d="M380.73 133.922L370.043 147.029L374.318 238.048L407.804 237.32L413.504 157.952L406.38 137.563L401.492 130.767L392.842 144.116L380.73 133.922Z" fill="#F6F5F8"/>
<path d="M363.631 181.253L355.793 211.835L363.631 242.418L350.806 259.894L339.406 204.554C339.406 204.554 347.956 159.408 348.669 154.311C349.381 149.214 350.806 148.486 350.806 148.486L356.506 149.214L363.631 181.253Z" fill="#002333"/>
<path d="M420.629 192.902L425.616 202.369L427.042 218.388L424.192 236.592L434.166 253.34L444.141 207.466L433.454 148.485H429.179L420.629 192.902Z" fill="#002333"/>
<path d="M360.068 365.476C360.068 365.476 350.093 368.389 346.531 369.117C342.969 369.845 348.668 383.68 348.668 383.68C348.668 383.68 352.231 402.612 352.943 406.253C353.656 409.894 358.643 422.272 365.055 423.728C371.468 425.185 367.193 398.243 367.193 398.243C367.193 398.243 370.043 389.505 370.043 386.593C370.043 383.68 365.768 385.136 365.768 385.136C354.368 383.68 360.068 365.476 360.068 365.476Z" fill="black"/>
<path d="M383.58 421.544C384.293 425.913 382.868 425.913 394.268 427.369C405.667 428.826 402.817 419.36 402.817 419.36C402.341 414.897 401.385 410.502 399.967 406.253C397.83 400.428 386.43 407.709 386.43 407.709C386.43 407.709 382.868 417.175 383.58 421.544Z" fill="black"/>
<path d="M399.986 114.042L400.357 120.518C400.357 120.518 404.954 109.893 405.667 98.9708C406.379 88.0485 394.267 85.864 387.142 85.1358C380.018 84.4077 367.906 89.5048 367.906 95.33C367.906 101.155 380.73 99.699 385.718 98.2427C390.705 96.7864 392.842 109.165 392.842 109.165L395.692 109.893L399.986 114.042Z" fill="black"/>
<path d="M376.525 139.079L380.73 133.922L392.842 144.116L380.73 152.854L376.525 139.079Z" fill="#D0CDE1"/>
<path d="M406.38 137.563L401.392 131.01L392.842 144.116L403.53 152.126L406.38 137.563Z" fill="#D0CDE1"/>
<path d="M361.493 191.447L364.343 219.117L358.643 235.864L355.081 251.884C355.081 251.884 355.081 267.175 369.331 267.903C383.58 268.631 395.692 222.029 395.692 222.029C395.692 222.029 397.83 232.223 399.255 238.049C400.68 243.874 424.904 267.175 424.904 267.175C424.904 267.175 430.604 266.447 435.591 254.796C440.579 243.146 425.617 232.223 425.617 232.223L421.342 216.932L422.767 198L432.741 148.485L403.173 132.83L406.38 174.699L395.692 207.466L379.662 135.014L374.318 139.019L351.519 148.485L361.493 191.447Z" fill="#002333"/>
<path d="M157.488 301.581C156.079 301.57 154.654 301.56 153.255 301.516L153.298 300.074C154.683 300.117 156.099 300.137 157.488 300.139C158.883 300.139 160.305 300.115 161.715 300.069L161.76 301.51C160.335 301.558 158.898 301.581 157.488 301.581ZM144.767 300.972C141.957 300.7 139.118 300.332 136.331 299.877L136.553 298.452C139.311 298.902 142.119 299.267 144.9 299.536L144.767 300.972ZM170.247 300.957L170.112 299.521C172.892 299.249 175.7 298.88 178.458 298.426L178.683 299.851C175.895 300.31 173.057 300.682 170.247 300.957H170.247ZM127.979 298.231C125.227 297.593 122.458 296.854 119.75 296.036L120.15 294.653C122.83 295.462 125.569 296.192 128.292 296.823L127.979 298.231ZM187.032 298.195L186.718 296.788C189.447 296.152 192.186 295.419 194.857 294.608L195.259 295.991C192.558 296.811 189.79 297.552 187.031 298.195H187.032ZM111.674 293.306C109.019 292.309 106.362 291.211 103.777 290.042L104.349 288.723C106.905 289.878 109.534 290.965 112.161 291.951L111.674 293.306ZM203.331 293.249L202.842 291.895C205.454 290.912 208.073 289.826 210.628 288.668L211.2 289.987C208.618 291.158 205.97 292.256 203.33 293.249H203.331ZM96.1049 286.265C93.6059 284.932 91.1102 283.495 88.6879 281.994L89.4201 280.76C91.8168 282.246 94.2856 283.667 96.7581 284.986L96.1049 286.265ZM218.851 286.213L218.198 284.934C220.664 283.615 223.128 282.194 225.518 280.71L226.251 281.943C223.835 283.444 221.345 284.879 218.851 286.213H218.851ZM81.556 277.247C79.2413 275.596 76.9473 273.845 74.737 272.044L75.6174 270.915C77.8042 272.698 80.0741 274.43 82.364 276.063L81.556 277.247ZM233.372 277.195L232.562 276.013C234.852 274.378 237.118 272.646 239.3 270.865L240.181 271.993C237.976 273.792 235.685 275.542 233.372 277.195V277.195ZM68.2576 266.407C66.1652 264.466 64.108 262.432 62.1443 260.362L63.1577 259.358C65.1008 261.405 67.1363 263.417 69.2069 265.339L68.2576 266.407ZM246.654 266.357L245.704 265.289C247.769 263.372 249.803 261.358 251.749 259.305L252.763 260.309C250.796 262.384 248.741 264.419 246.654 266.357V266.357ZM56.4208 253.934C54.5887 251.738 52.8024 249.455 51.111 247.147L52.2412 246.281C53.9148 248.566 55.6821 250.825 57.4949 252.997L56.4208 253.934ZM258.485 253.874L257.411 252.938C259.223 250.765 260.991 248.502 262.664 246.215L263.794 247.079C262.103 249.391 260.317 251.677 258.485 253.874V253.874ZM46.2365 240.028C44.6919 237.61 43.2055 235.114 41.8184 232.608L43.0476 231.897C44.4195 234.377 45.8904 236.847 47.4188 239.238L46.2365 240.028ZM268.671 239.949L267.488 239.162C269.017 236.765 270.487 234.291 271.86 231.806L273.09 232.515C271.703 235.027 270.216 237.528 268.671 239.949V239.949ZM37.8757 224.915C36.6471 222.318 35.4865 219.649 34.4262 216.982L35.734 216.439C36.7833 219.077 37.9315 221.718 39.1469 224.287L37.8757 224.915ZM277.034 224.802L275.763 224.175C276.977 221.602 278.126 218.954 279.177 216.304L280.485 216.845C279.423 219.524 278.262 222.202 277.034 224.802V224.802ZM31.479 208.827C30.5859 206.087 29.7699 203.283 29.0536 200.494L30.4194 200.128C31.1277 202.886 31.9351 205.66 32.8185 208.371L31.479 208.827ZM283.427 208.675L282.087 208.221C282.965 205.513 283.769 202.739 284.476 199.974L285.842 200.339C285.128 203.134 284.315 205.938 283.427 208.675V208.675ZM27.1595 192.021C26.62 189.19 26.1636 186.304 25.8027 183.441L27.2029 183.256C27.56 186.089 28.0116 188.944 28.5452 191.745L27.1595 192.021ZM287.727 191.863L286.341 191.589C286.87 188.789 287.319 185.932 287.673 183.098L289.074 183.281C288.716 186.146 288.262 189.033 287.727 191.863V191.863ZM24.9865 174.79C24.8055 171.914 24.7121 168.991 24.709 166.101L26.1209 166.1C26.124 168.959 26.2164 171.851 26.3956 174.697L24.9865 174.79ZM289.88 174.629L288.471 174.537C288.647 171.694 288.736 168.802 288.736 165.942L288.735 165.626H290.147L290.148 165.937C290.148 168.832 290.058 171.755 289.88 174.629ZM26.376 157.504L24.9668 157.415C25.1419 154.533 25.4098 151.622 25.7631 148.762L27.164 148.942C26.8141 151.773 26.549 154.653 26.376 157.504ZM288.452 157.03C288.268 154.178 287.993 151.299 287.634 148.472L289.034 148.286C289.397 151.143 289.676 154.053 289.861 156.936L288.452 157.03ZM28.4863 140.45L27.0999 140.178C27.6324 137.346 28.2633 134.493 28.974 131.7L30.3404 132.062C29.6372 134.826 29.0133 137.648 28.4863 140.45ZM286.281 139.985C285.743 137.181 285.109 134.362 284.397 131.604L285.762 131.236C286.482 134.024 287.123 136.874 287.667 139.707L286.281 139.985ZM32.721 123.814L31.3801 123.362C32.2663 120.62 33.2528 117.869 34.3128 115.187L35.622 115.727C34.5734 118.381 33.5975 121.102 32.721 123.814ZM281.99 123.364C281.103 120.656 280.12 117.943 279.066 115.3L280.373 114.755C281.439 117.427 282.433 120.169 283.329 122.906L281.99 123.364ZM39.0277 107.85L37.755 107.224C38.9798 104.622 40.3041 102.026 41.6909 99.5077L42.9215 100.216C41.5492 102.707 40.2393 105.275 39.0277 107.85ZM275.644 107.456C274.428 104.894 273.113 102.335 271.734 99.8505L272.963 99.1389C274.356 101.65 275.685 104.237 276.914 106.827L275.644 107.456ZM47.2854 92.8541L46.1017 92.0671C47.6415 89.6483 49.2792 87.2474 50.9689 84.9318L52.1009 85.7942C50.4291 88.0855 48.8087 90.4606 47.2854 92.8541ZM267.355 92.5145C265.827 90.1298 264.202 87.7621 262.524 85.4772L263.653 84.6112C265.349 86.9208 266.992 89.3139 268.536 91.7239L267.355 92.5145ZM57.3467 79.0651L56.2712 78.1309C58.0998 75.9322 60.0223 73.765 61.985 71.6896L63.0005 72.6922C61.0584 74.7457 59.1564 76.8901 57.3467 79.0651ZM257.262 78.7678C255.447 76.5988 253.539 74.4607 251.592 72.4132L252.604 71.4078C254.572 73.4768 256.5 75.6377 258.335 77.83L257.262 78.7678ZM69.0387 66.7009L68.088 65.6341C70.1773 63.6892 72.353 61.79 74.5543 59.9898L75.4368 61.1164C73.2586 62.8976 71.1059 64.7767 69.0387 66.7009V66.7009ZM245.535 66.4391C243.465 64.5237 241.307 62.6503 239.118 60.8712L239.998 59.7418C242.209 61.5402 244.391 63.4334 246.483 65.3696L245.535 66.4391ZM82.1685 55.9607L81.3585 54.7791C83.6687 53.1244 86.0623 51.5246 88.4728 50.0239L89.2074 51.2562C86.8227 52.7411 84.4542 54.3239 82.1685 55.9607ZM232.366 55.731C230.068 54.096 227.692 52.5184 225.305 51.042L226.036 49.8076C228.448 51.2995 230.85 52.894 233.173 54.5466L232.366 55.731ZM96.5234 47.0231L95.8678 45.745C98.3638 44.407 100.937 43.1338 103.514 41.9611L104.088 43.2793C101.538 44.4394 98.9932 45.6992 96.5234 47.0231ZM217.962 46.8251C215.482 45.5061 212.927 44.2523 210.367 43.0982L210.937 41.7779C213.525 42.9443 216.108 44.2118 218.614 45.5449L217.962 46.8251ZM111.87 40.0425L111.38 38.689C114.027 37.6881 116.742 36.7623 119.448 35.9376L119.852 37.3207C117.174 38.1362 114.489 39.0522 111.87 40.0425H111.87ZM202.551 39.8787C199.927 38.8976 197.238 37.9915 194.56 37.1861L194.958 35.8016C197.666 36.6157 200.384 37.5317 203.036 38.5238L202.551 39.8787ZM127.988 35.1312L127.673 33.7249C130.42 33.0816 133.229 32.5211 136.02 32.0579L136.246 33.4825C133.484 33.9405 130.706 34.495 127.988 35.1312ZM186.415 35.0263C183.693 34.3992 180.912 33.8546 178.151 33.4071L178.372 31.9818C181.163 32.4341 183.974 32.9848 186.725 33.6185L186.415 35.0263ZM144.591 32.3781L144.455 30.9422C147.258 30.6642 150.113 30.4743 152.941 30.3782L152.987 31.8204C150.189 31.9156 147.365 32.1033 144.591 32.3781V32.3781ZM169.803 32.3334C167.025 32.0681 164.199 31.8906 161.405 31.8057L161.447 30.3634C164.271 30.4494 167.127 30.6287 169.934 30.8968L169.803 32.3334Z" fill="#02ACAB" fill-opacity="0.25"/>
<path d="M152.486 67.8198C170.811 67.8198 185.666 52.6378 185.666 33.9099C185.666 15.182 170.811 0 152.486 0C134.162 0 119.306 15.182 119.306 33.9099C119.306 52.6378 134.162 67.8198 152.486 67.8198Z" fill="#02ACAB"/>
<path d="M280.97 160.17C299.295 160.17 314.15 144.988 314.15 126.26C314.15 107.532 299.295 92.3503 280.97 92.3503C262.645 92.3503 247.79 107.532 247.79 126.26C247.79 144.988 262.645 160.17 280.97 160.17Z" fill="#02ACAB"/>
<path d="M240.731 301.581C259.055 301.581 273.911 286.399 273.911 267.672C273.911 248.944 259.055 233.762 240.731 233.762C222.406 233.762 207.551 248.944 207.551 267.672C207.551 286.399 222.406 301.581 240.731 301.581Z" fill="#02ACAB"/>
<path d="M81.4726 307.353C99.7974 307.353 114.653 292.171 114.653 273.443C114.653 254.716 99.7974 239.534 81.4726 239.534C63.1479 239.534 48.2927 254.716 48.2927 273.443C48.2927 292.171 63.1479 307.353 81.4726 307.353Z" fill="#02ACAB"/>
<path d="M33.1799 160.17C51.5047 160.17 66.3598 144.988 66.3598 126.26C66.3598 107.532 51.5047 92.3503 33.1799 92.3503C14.8551 92.3503 0 107.532 0 126.26C0 144.988 14.8551 160.17 33.1799 160.17Z" fill="#02ACAB"/>
<path d="M38.4481 124.241C38.1876 124.241 37.933 124.162 37.7164 124.014C37.4998 123.866 37.331 123.656 37.2313 123.41C37.1317 123.164 37.1056 122.894 37.1564 122.633C37.2072 122.372 37.3326 122.132 37.5168 121.943L40.5366 118.857L37.5168 115.771C37.2698 115.519 37.1311 115.176 37.1311 114.819C37.1311 114.462 37.2698 114.12 37.5168 113.867C37.7638 113.615 38.0988 113.473 38.4481 113.473C38.7974 113.473 39.1324 113.615 39.3794 113.867L43.3304 117.905C43.4527 118.03 43.5497 118.179 43.6159 118.342C43.6821 118.505 43.7162 118.68 43.7162 118.857C43.7162 119.034 43.6821 119.209 43.6159 119.372C43.5497 119.536 43.4527 119.684 43.3304 119.809L39.3794 123.847C39.2572 123.972 39.112 124.071 38.9522 124.139C38.7924 124.207 38.6211 124.241 38.4481 124.241Z" fill="white"/>
<path d="M17.3756 128.279C17.2027 128.279 17.0314 128.244 16.8716 128.177C16.7118 128.109 16.5666 128.01 16.4443 127.885C16.322 127.76 16.225 127.612 16.1588 127.448C16.0927 127.285 16.0586 127.11 16.0586 126.933V125.587C16.0689 123.449 16.9042 121.402 18.3831 119.89C19.862 118.377 21.8649 117.523 23.9568 117.511H41.0821C41.4313 117.511 41.7663 117.653 42.0133 117.905C42.2603 118.158 42.3991 118.5 42.3991 118.857C42.3991 119.214 42.2603 119.556 42.0133 119.809C41.7663 120.061 41.4313 120.203 41.0821 120.203H23.9607C22.5654 120.212 21.2297 120.782 20.2434 121.791C19.2571 122.8 18.6999 124.165 18.6926 125.591V126.933C18.6927 127.11 18.6586 127.285 18.5924 127.448C18.5262 127.611 18.4292 127.76 18.3069 127.885C18.1846 128.01 18.0394 128.109 17.8796 128.177C17.7198 128.244 17.5486 128.279 17.3756 128.279V128.279Z" fill="white"/>
<path d="M27.9117 139.047C27.7387 139.047 27.5674 139.013 27.4075 138.945C27.2477 138.877 27.1026 138.778 26.9804 138.653L23.0293 134.615C22.907 134.49 22.81 134.342 22.7438 134.178C22.6776 134.015 22.6436 133.84 22.6436 133.663C22.6436 133.486 22.6776 133.311 22.7438 133.148C22.81 132.985 22.907 132.836 23.0293 132.711L26.9804 128.673C27.2275 128.421 27.5623 128.28 27.9114 128.28C28.2605 128.28 28.5952 128.422 28.8421 128.674C29.0889 128.927 29.2276 129.269 29.2278 129.625C29.228 129.982 29.0895 130.324 28.8429 130.577L25.8232 133.663L28.8429 136.749C29.0271 136.938 29.1525 137.177 29.2033 137.439C29.2542 137.7 29.2281 137.97 29.1284 138.216C29.0287 138.462 28.8599 138.672 28.6434 138.82C28.4268 138.968 28.1722 139.047 27.9117 139.047Z" fill="white"/>
<path d="M25.2779 135.009C24.9287 135.009 24.5937 134.867 24.3467 134.615C24.0997 134.363 23.9609 134.02 23.9609 133.663C23.9609 133.306 24.0997 132.964 24.3467 132.711C24.5937 132.459 24.9287 132.317 25.2779 132.317H42.3992C43.7945 132.309 45.1303 131.738 46.1166 130.73C47.1029 129.721 47.6601 128.355 47.6673 126.929V125.587C47.6673 125.23 47.8061 124.888 48.0531 124.635C48.3 124.383 48.635 124.241 48.9843 124.241C49.3336 124.241 49.6686 124.383 49.9156 124.635C50.1626 124.888 50.3014 125.23 50.3014 125.587V126.933C50.291 129.071 49.4557 131.119 47.9769 132.631C46.498 134.143 44.495 134.998 42.4031 135.009L25.2779 135.009Z" fill="white"/>
<path d="M73 271.119L80.967 255L87.2857 270.882L81.0802 274.286L73 271.119Z" fill="white"/>
<path d="M80.8572 274.286V255L87.2857 270.882L80.8572 274.286Z" fill="#F5F5F5"/>
<path d="M73 272.857L81.3333 290L88 272.857L81.3333 276.531L73 272.857Z" fill="white"/>
<path d="M80.8572 276.286L81.1429 290L88 272.857L80.8572 276.286Z" fill="#F5F5F5"/>
<path d="M267.089 115.211L277.735 108.152C279.409 107.042 281.586 107.042 283.261 108.152L293.906 115.211C295.303 116.137 296.143 117.702 296.143 119.378V131.035C296.143 132.711 295.303 134.275 293.906 135.202L283.261 142.26C281.586 143.371 279.409 143.371 277.735 142.26L267.089 135.202C265.692 134.275 264.853 132.711 264.853 131.035V119.378C264.853 117.702 265.692 116.137 267.089 115.211Z" stroke="white" stroke-width="2" stroke-linecap="round"/>
<path d="M274.327 127.063H271.124L270.544 128.728H269.233L272.027 121.165H273.435L276.218 128.728H274.907L274.327 127.063ZM273.983 126.105L272.726 122.514L271.468 126.105H273.983Z" fill="white"/>
<path d="M281.115 128.728L279.223 125.659H278.353V128.728H277.128V121.045H279.804C280.67 121.045 281.326 121.259 281.77 121.687C282.221 122.115 282.447 122.681 282.447 123.385C282.447 123.987 282.279 124.48 281.942 124.865C281.612 125.249 281.132 125.496 280.502 125.604L282.49 128.728H281.115ZM278.353 124.777H279.707C280.695 124.777 281.19 124.335 281.19 123.45C281.19 123.029 281.068 122.703 280.824 122.471C280.588 122.231 280.215 122.111 279.707 122.111H278.353V124.777Z" fill="white"/>
<path d="M284.775 121.045V128.728H283.55V121.045H284.775Z" fill="white"/>
<path d="M291.137 121.045V122.046H289.02V128.728H287.784V122.046H285.677V121.045H291.137Z" fill="white"/>
<path d="M229.094 258.919L237.504 253.343C239.179 252.232 241.356 252.232 243.03 253.343L251.441 258.919C252.838 259.846 253.677 261.41 253.677 263.086V272.311C253.677 273.987 252.838 275.551 251.441 276.478L243.03 282.054C241.356 283.165 239.179 283.165 237.504 282.054L229.094 276.478C227.697 275.551 226.857 273.987 226.857 272.311V263.086C226.857 261.41 227.697 259.846 229.094 258.919Z" stroke="white" stroke-width="2" stroke-linecap="round"/>
<path d="M237.253 271.265H235.687L232.178 266.042V271.265H230.612V263.583H232.178L235.687 268.85V263.583H237.253V271.265Z" fill="white"/>
<path d="M243.534 263.583V264.802H240.236V266.858H242.879V268.033H240.236V271.265H238.67V263.583H243.534Z" fill="white"/>
<path d="M249.923 263.583V264.802H247.757V271.265H246.191V264.802H244.036V263.583H249.923Z" fill="white"/>
<path d="M144.332 43.9508L144.16 42.8114C145.169 42.6361 145.778 42.4413 145.988 42.2271C146.216 42.0128 146.331 41.6038 146.331 41V26.655C146.331 26.0512 146.216 25.6422 145.988 25.428C145.778 25.2137 145.169 25.0189 144.16 24.8436L144.332 23.7042H151.871C153.946 23.7042 155.536 24.1327 156.64 24.9897C157.745 25.8272 158.297 27.0056 158.297 28.5248C158.297 29.7324 157.973 30.755 157.326 31.5925C156.698 32.4105 156.022 32.9364 155.298 33.1702V33.3747C156.517 33.6084 157.535 34.1927 158.354 35.1276C159.173 36.0625 159.582 37.2019 159.582 38.5459C159.582 39.8703 159.011 41.1071 157.868 42.2563C156.745 43.386 155.013 43.9508 152.671 43.9508H144.332ZM149.101 32.7611H150.7C152.261 32.7611 153.404 32.4203 154.127 31.7386C154.87 31.0374 155.241 30.083 155.241 28.8754C155.241 26.4603 153.832 25.2527 151.014 25.2527H149.101V32.7611ZM149.101 41.1169C149.101 41.6817 149.244 42.0226 149.529 42.1394C149.815 42.3342 150.396 42.4316 151.271 42.4316C153.099 42.4316 154.413 42.1005 155.212 41.4382C156.012 40.776 156.412 39.8216 156.412 38.5751C156.412 36.7637 155.698 35.5172 154.27 34.8355C153.566 34.4849 152.766 34.3096 151.871 34.3096H149.101V41.1169Z" fill="white"/>
<path d="M150.043 20.5781V23.4997" stroke="white" stroke-linecap="round"/>
<path d="M150.043 43.9508V46.8724" stroke="white" stroke-linecap="round"/>
<path d="M152.899 20.5781V23.4997" stroke="white" stroke-linecap="round"/>
<path d="M152.899 43.9508V46.8724" stroke="white" stroke-linecap="round"/>
</svg>
