<svg width="378" height="109" viewBox="0 0 378 109" fill="none" xmlns="http://www.w3.org/2000/svg">
<path d="M12 105.233C14.3975 100.217 14.589 94.8272 28.6143 92.9013C46.146 90.494 47.9441 51.3754 61.8795 49.5699C75.815 47.7644 83.9065 67.0228 100.09 67.0228C116.273 67.0228 110.878 35.1259 129.759 33.9223C148.639 32.7186 136.502 49.5699 153.134 49.5699C169.767 49.5699 167.519 92.9013 178.308 92.9013C189.097 92.9013 179.207 67.0228 189.996 67.0228C200.784 67.0228 208.876 76.0502 210.674 84.4758C212.472 92.9013 215.169 67.0228 227.307 67.0228C239.444 67.0228 232.251 33.9223 252.93 33.9223C273.608 33.9223 270.461 1.42385 286.645 1.42385C291.589 -0.181013 302.828 1.90533 308.222 23.0896C314.965 49.5699 329.35 44.755 341.487 33.9223C353.624 23.0896 372.954 29.1077 377 53.7826" stroke="#002333" stroke-width="2"/>
<path d="M28.6143 92.9013C14.589 94.8272 2.39749 103.985 0 109H377V53.7826C372.954 29.1077 353.624 23.0896 341.487 33.9223C329.35 44.755 314.965 49.5699 308.222 23.0896C302.828 1.90533 291.589 -0.181013 286.645 1.42385C270.461 1.42385 273.608 33.9223 252.93 33.9223C232.251 33.9223 239.444 67.0228 227.307 67.0228C215.169 67.0228 212.472 92.9013 210.674 84.4758C208.876 76.0502 200.784 67.0228 189.996 67.0228C179.207 67.0228 189.096 92.9013 178.308 92.9013C167.519 92.9013 169.767 49.5699 153.134 49.5699C136.501 49.5699 148.639 32.7186 129.759 33.9223C110.878 35.1259 116.273 67.0228 100.09 67.0228C83.9065 67.0228 75.815 47.7644 61.8795 49.5699C47.9441 51.3754 46.146 90.494 28.6143 92.9013Z" fill="url(#paint0_linear_1815_2)"/>
<rect x="210" y="27" width="46" height="17" rx="8.5" fill="#002333"/>
<path d="M231.705 36.46H230.705V37.47H230.15V36.46H229.155V35.935H230.15V34.92H230.705V35.935H231.705V36.46ZM233.356 34.36C233.59 34.36 233.79 34.4017 233.956 34.485C234.123 34.565 234.248 34.6767 234.331 34.82C234.418 34.9633 234.461 35.1233 234.461 35.3C234.461 35.5233 234.398 35.71 234.271 35.86C234.148 36.0067 233.973 36.095 233.746 36.125V36.15C233.99 36.22 234.18 36.325 234.316 36.465C234.456 36.6017 234.526 36.7917 234.526 37.035C234.526 37.3317 234.428 37.5733 234.231 37.76C234.035 37.9433 233.753 38.035 233.386 38.035C233.01 38.035 232.706 37.94 232.476 37.75C232.246 37.5567 232.115 37.2717 232.081 36.895H232.646C232.666 37.095 232.738 37.255 232.861 37.375C232.985 37.4917 233.151 37.55 233.361 37.55C233.558 37.55 233.708 37.4983 233.811 37.395C233.918 37.2917 233.971 37.1583 233.971 36.995C233.971 36.7983 233.895 36.6483 233.741 36.545C233.591 36.4417 233.373 36.39 233.086 36.39H232.951V35.92H233.086C233.63 35.9267 233.901 35.7417 233.901 35.365C233.901 35.2017 233.851 35.0733 233.751 34.98C233.651 34.8867 233.515 34.84 233.341 34.84C233.168 34.84 233.023 34.8933 232.906 35C232.79 35.1033 232.72 35.255 232.696 35.455H232.136C232.16 35.1083 232.276 34.84 232.486 34.65C232.696 34.4567 232.986 34.36 233.356 34.36ZM235.62 37.37V38H234.975V37.37H235.62ZM235.952 37.24V36.76L237.707 34.44H238.317V36.74H238.812V37.24H238.317V38H237.742V37.24H235.952ZM237.782 35.12L236.542 36.74H237.782V35.12ZM239.866 34.42C240.09 34.42 240.271 34.49 240.411 34.63C240.551 34.7667 240.621 34.9533 240.621 35.19C240.621 35.4267 240.551 35.6133 240.411 35.75C240.271 35.8867 240.09 35.955 239.866 35.955C239.643 35.955 239.46 35.8867 239.316 35.75C239.176 35.6133 239.106 35.4267 239.106 35.19C239.106 34.9533 239.176 34.7667 239.316 34.63C239.46 34.49 239.643 34.42 239.866 34.42ZM241.981 34.465L239.986 38H239.426L241.426 34.465H241.981ZM239.496 35.19C239.496 35.3167 239.53 35.4183 239.596 35.495C239.663 35.5683 239.751 35.605 239.861 35.605C239.971 35.605 240.06 35.5667 240.126 35.49C240.196 35.4133 240.231 35.3133 240.231 35.19C240.231 35.0633 240.196 34.9617 240.126 34.885C240.06 34.8083 239.971 34.77 239.861 34.77C239.751 34.77 239.663 34.8083 239.596 34.885C239.53 34.9617 239.496 35.0633 239.496 35.19ZM241.546 36.51C241.77 36.51 241.951 36.5783 242.091 36.715C242.235 36.8517 242.306 37.0383 242.306 37.275C242.306 37.5117 242.235 37.7 242.091 37.84C241.951 37.9767 241.77 38.045 241.546 38.045C241.326 38.045 241.145 37.9767 241.001 37.84C240.861 37.7 240.791 37.5117 240.791 37.275C240.791 37.0417 240.861 36.8567 241.001 36.72C241.145 36.58 241.326 36.51 241.546 36.51ZM241.181 37.275C241.181 37.4017 241.215 37.5033 241.281 37.58C241.348 37.6567 241.436 37.695 241.546 37.695C241.656 37.695 241.745 37.6567 241.811 37.58C241.881 37.5033 241.916 37.4017 241.916 37.275C241.916 37.1517 241.881 37.0517 241.811 36.975C241.745 36.8983 241.656 36.86 241.546 36.86C241.436 36.86 241.348 36.8983 241.281 36.975C241.215 37.0517 241.181 37.1517 241.181 37.275Z" fill="white"/>
<path d="M223.5 34L226 38H221L223.5 34Z" fill="white"/>
<defs>
<linearGradient id="paint0_linear_1815_2" x1="188.5" y1="1" x2="188.5" y2="109" gradientUnits="userSpaceOnUse">
<stop stop-color="#02ACAB"/>
<stop offset="1" stop-color="#02ACAB" stop-opacity="0"/>
</linearGradient>
</defs>
</svg>
