<svg width="380" height="117" viewBox="0 0 380 117" fill="none" xmlns="http://www.w3.org/2000/svg">
<path d="M28.7661 99.5598C14.6664 101.646 2.41021 111.567 0 117H379V57.1811C374.933 30.45 355.5 23.9304 343.299 35.6658C331.097 47.4012 316.636 52.6174 309.857 23.9304C304.434 0.980769 293.136 -1.27943 288.165 0.459168C271.896 0.459168 275.06 35.6658 254.272 35.6658C233.483 35.6658 240.714 71.5247 228.512 71.5247C216.311 71.5247 213.599 99.5598 211.792 90.4321C209.984 81.3044 201.849 71.5247 191.003 71.5247C180.158 71.5247 190.1 99.5598 179.254 99.5598C168.408 99.5598 170.667 52.6174 153.946 52.6174C137.226 52.6174 149.427 34.3618 130.447 35.6658C111.467 36.9697 116.889 71.5247 100.621 71.5247C84.3516 71.5247 76.2172 50.6614 62.2078 52.6174C48.1985 54.5733 46.3908 96.9519 28.7661 99.5598Z" fill="url(#paint0_linear_1815_3)"/>
<path d="M11.813 113.936C14.2184 108.503 14.4105 102.663 28.482 100.577C46.0715 97.9693 47.8755 55.5907 61.8569 53.6348C75.8382 51.6788 83.9564 72.5421 100.193 72.5421C116.429 72.5421 111.017 37.9871 129.96 36.6832C148.902 35.3792 136.725 53.6348 153.412 53.6348C170.1 53.6348 167.844 100.577 178.669 100.577C189.493 100.577 179.571 72.5421 190.395 72.5421C201.219 72.5421 209.337 82.3218 211.142 91.4495C212.946 100.577 215.652 72.5421 227.829 72.5421C240.006 72.5421 232.79 36.6832 253.537 36.6832C274.283 36.6832 271.126 1.47656 287.362 1.47656C292.324 -0.262036 303.599 1.99816 309.011 24.9478C315.776 53.6348 330.208 48.4186 342.386 36.6832C354.563 24.9478 373.956 31.4674 378.016 58.1985" stroke="#002333" stroke-width="2"/>
<rect x="193" y="76" width="46" height="17" rx="8.5" fill="#002333"/>
<path d="M214.705 85.46H213.705V86.47H213.15V85.46H212.155V84.935H213.15V83.92H213.705V84.935H214.705V85.46ZM216.356 83.36C216.59 83.36 216.79 83.4017 216.956 83.485C217.123 83.565 217.248 83.6767 217.331 83.82C217.418 83.9633 217.461 84.1233 217.461 84.3C217.461 84.5233 217.398 84.71 217.271 84.86C217.148 85.0067 216.973 85.095 216.746 85.125V85.15C216.99 85.22 217.18 85.325 217.316 85.465C217.456 85.6017 217.526 85.7917 217.526 86.035C217.526 86.3317 217.428 86.5733 217.231 86.76C217.035 86.9433 216.753 87.035 216.386 87.035C216.01 87.035 215.706 86.94 215.476 86.75C215.246 86.5567 215.115 86.2717 215.081 85.895H215.646C215.666 86.095 215.738 86.255 215.861 86.375C215.985 86.4917 216.151 86.55 216.361 86.55C216.558 86.55 216.708 86.4983 216.811 86.395C216.918 86.2917 216.971 86.1583 216.971 85.995C216.971 85.7983 216.895 85.6483 216.741 85.545C216.591 85.4417 216.373 85.39 216.086 85.39H215.951V84.92H216.086C216.63 84.9267 216.901 84.7417 216.901 84.365C216.901 84.2017 216.851 84.0733 216.751 83.98C216.651 83.8867 216.515 83.84 216.341 83.84C216.168 83.84 216.023 83.8933 215.906 84C215.79 84.1033 215.72 84.255 215.696 84.455H215.136C215.16 84.1083 215.276 83.84 215.486 83.65C215.696 83.4567 215.986 83.36 216.356 83.36ZM218.62 86.37V87H217.975V86.37H218.62ZM218.952 86.24V85.76L220.707 83.44H221.317V85.74H221.812V86.24H221.317V87H220.742V86.24H218.952ZM220.782 84.12L219.542 85.74H220.782V84.12ZM222.866 83.42C223.09 83.42 223.271 83.49 223.411 83.63C223.551 83.7667 223.621 83.9533 223.621 84.19C223.621 84.4267 223.551 84.6133 223.411 84.75C223.271 84.8867 223.09 84.955 222.866 84.955C222.643 84.955 222.46 84.8867 222.316 84.75C222.176 84.6133 222.106 84.4267 222.106 84.19C222.106 83.9533 222.176 83.7667 222.316 83.63C222.46 83.49 222.643 83.42 222.866 83.42ZM224.981 83.465L222.986 87H222.426L224.426 83.465H224.981ZM222.496 84.19C222.496 84.3167 222.53 84.4183 222.596 84.495C222.663 84.5683 222.751 84.605 222.861 84.605C222.971 84.605 223.06 84.5667 223.126 84.49C223.196 84.4133 223.231 84.3133 223.231 84.19C223.231 84.0633 223.196 83.9617 223.126 83.885C223.06 83.8083 222.971 83.77 222.861 83.77C222.751 83.77 222.663 83.8083 222.596 83.885C222.53 83.9617 222.496 84.0633 222.496 84.19ZM224.546 85.51C224.77 85.51 224.951 85.5783 225.091 85.715C225.235 85.8517 225.306 86.0383 225.306 86.275C225.306 86.5117 225.235 86.7 225.091 86.84C224.951 86.9767 224.77 87.045 224.546 87.045C224.326 87.045 224.145 86.9767 224.001 86.84C223.861 86.7 223.791 86.5117 223.791 86.275C223.791 86.0417 223.861 85.8567 224.001 85.72C224.145 85.58 224.326 85.51 224.546 85.51ZM224.181 86.275C224.181 86.4017 224.215 86.5033 224.281 86.58C224.348 86.6567 224.436 86.695 224.546 86.695C224.656 86.695 224.745 86.6567 224.811 86.58C224.881 86.5033 224.916 86.4017 224.916 86.275C224.916 86.1517 224.881 86.0517 224.811 85.975C224.745 85.8983 224.656 85.86 224.546 85.86C224.436 85.86 224.348 85.8983 224.281 85.975C224.215 86.0517 224.181 86.1517 224.181 86.275Z" fill="white"/>
<path d="M206.5 83L209 87H204L206.5 83Z" fill="white"/>
<defs>
<linearGradient id="paint0_linear_1815_3" x1="189.5" y1="0" x2="189.5" y2="117" gradientUnits="userSpaceOnUse">
<stop stop-color="#02ACAB"/>
<stop offset="1" stop-color="#02ACAB" stop-opacity="0"/>
</linearGradient>
</defs>
</svg>
