<svg width="121" height="155" viewBox="0 0 121 155" fill="none" xmlns="http://www.w3.org/2000/svg">
<path d="M31.9206 81.0665C31.8552 81.1454 31.8016 81.2048 31.7595 81.2482H4.02589C2.36442 81.2482 1.03296 82.596 1.03296 84.2482V100.843C1.03296 102.499 2.37377 103.843 4.03154 103.843H34.2782C34.2951 103.853 34.3221 103.871 34.3598 103.9C34.4919 104.003 34.664 104.18 34.895 104.458C35.079 104.68 35.2721 104.93 35.4927 105.216C35.5458 105.285 35.6005 105.356 35.6571 105.429C35.9418 105.797 36.2614 106.204 36.6171 106.614C38.0404 108.253 40.1414 110.053 43.4007 109.987C49.0596 109.873 61.4074 109.716 65.8019 109.986C68.1885 110.132 70.3419 109.145 72.0493 107.9C73.7612 106.652 75.1147 105.082 75.9388 103.884C76.2776 103.391 76.4249 102.823 76.4249 102.275V86.2963C76.4249 86.0528 76.5274 85.7858 76.7863 85.4804C77.0495 85.17 77.4277 84.8776 77.8524 84.6155C79.7092 83.4694 80.5863 81.1375 80.3119 79.1185C80.1711 78.0821 79.7205 77.0639 78.8778 76.3032C78.0275 75.5355 76.8594 75.1038 75.4249 75.1038H61.9848C61.5142 75.1038 61.0457 74.7551 60.8905 74.2011C60.621 73.2384 60.2351 72.1208 59.725 71.0887C59.2232 70.0732 58.5589 69.0531 57.6933 68.3756C57.2433 68.0233 56.658 67.8026 56.0686 67.6525C55.463 67.4984 54.766 67.3977 54.0266 67.3346C52.5472 67.2082 50.8048 67.2245 49.0961 67.3109C45.685 67.4834 42.2722 67.943 41.1102 68.1838C40.7823 68.2518 40.4999 68.413 40.2774 68.5728C40.0472 68.7382 39.8245 68.9436 39.6128 69.165C39.1902 69.6072 38.7444 70.1849 38.2955 70.8259C37.3953 72.1109 36.4036 73.765 35.4603 75.3695C35.2682 75.6962 35.0783 76.0207 34.8913 76.3401C34.1496 77.607 33.4545 78.7943 32.8571 79.7292C32.4819 80.3164 32.1669 80.7693 31.9206 81.0665ZM31.6691 81.3329C31.6562 81.3432 31.6499 81.347 31.6501 81.3463C31.6502 81.3457 31.6567 81.3405 31.6691 81.3329Z" fill="#A48585" stroke="#002333" stroke-width="2" stroke-linecap="round" stroke-linejoin="round"/>
<rect x="2" y="82" width="17" height="21" fill="#02ACAB"/>
<rect x="18.5" y="81.5" width="11" height="22" fill="#02ACAB" stroke="#002333"/>
<rect x="7.19873" y="87.3455" width="3.09933" height="2.68367" fill="#002333"/>
<path d="M40.5224 138.391L25.2438 152.26C24.5667 152.874 25.0015 154 25.9159 154H57.5804C58.5119 154 58.9374 152.839 58.2264 152.237L41.8406 138.368C41.4577 138.044 40.8939 138.054 40.5224 138.391Z" stroke="#002333" stroke-width="2" stroke-linecap="round" stroke-linejoin="round"/>
<path d="M92.8617 142.511L84.1009 152.334C83.5261 152.979 83.9836 154 84.8472 154H103.004C103.884 154 104.335 152.945 103.726 152.309L94.3307 142.485C93.9274 142.063 93.2501 142.075 92.8617 142.511Z" stroke="#002333" stroke-width="2" stroke-linecap="round" stroke-linejoin="round"/>
<path d="M73.4601 129.724C73.2709 129.521 73.0057 129.405 72.7279 129.405H59.5227C59.229 129.405 58.9501 129.534 58.7601 129.758L53.9169 135.467L59.5723 140.075C59.9433 140.377 60.4764 140.374 60.844 140.068L64.649 136.898C65.0012 136.605 65.5077 136.588 65.8781 136.858L70.4449 140.187C70.7816 140.433 71.2353 140.444 71.5835 140.215L78.8027 135.467L73.4601 129.724Z" fill="#002333"/>
<path d="M39.5893 152.353C39.0381 153.003 39.4998 154 40.3518 154H93.7498C94.6234 154 95.077 152.958 94.4819 152.319L78.8027 135.467L71.5835 140.215C71.2353 140.444 70.7816 140.433 70.4449 140.187L65.8781 136.858C65.5077 136.588 65.0012 136.605 64.649 136.898L60.844 140.068C60.4764 140.374 59.9433 140.377 59.5723 140.075L53.9169 135.467L39.5893 152.353Z" fill="#002333"/>
<path d="M53.9169 135.467L58.7601 129.758C58.9502 129.534 59.229 129.405 59.5227 129.405H72.7279C73.0057 129.405 73.2709 129.521 73.4601 129.724L78.8027 135.467M53.9169 135.467L39.5893 152.353C39.0381 153.003 39.4998 154 40.3518 154H93.7498C94.6234 154 95.077 152.958 94.4819 152.319L78.8027 135.467M53.9169 135.467L59.5723 140.075C59.9433 140.377 60.4764 140.374 60.844 140.068L64.649 136.898C65.0012 136.605 65.5077 136.588 65.8781 136.858L70.4449 140.187C70.7816 140.433 71.2353 140.444 71.5835 140.215L78.8027 135.467" stroke="#002333" stroke-width="2" stroke-linecap="round" stroke-linejoin="round"/>
<path d="M59.7243 132.535L56.9032 136.108C55.9435 137.323 56.3084 139.11 57.6679 139.852L60.5483 141.423C61.4226 141.9 62.4968 141.813 63.2824 141.2L65.2968 139.63C65.8389 139.208 66.5989 139.208 67.141 139.63L69.1033 141.16C69.9216 141.797 71.0488 141.864 71.936 141.326L74.4433 139.806C75.6742 139.06 76.0224 137.431 75.2042 136.247L72.7283 132.663C72.2615 131.988 71.4926 131.584 70.6714 131.584H61.6864C60.9213 131.584 60.1984 131.935 59.7243 132.535Z" fill="#CCEEEE" stroke="#002333" stroke-linecap="round" stroke-linejoin="round"/>
<path d="M61.9534 62.6487V2L118.774 42.973L61.9534 62.6487Z" stroke="#002333" stroke-width="2"/>
<path d="M61.9534 74.0675V64.0722L72.2845 60.8918V74.0675H61.9534Z" stroke="#002333" stroke-width="2"/>
<path d="M61.4304 129.226V109.745C65.1464 109.745 65.3529 110.645 71.5168 108.739V129.226H61.4304Z" stroke="#002333" stroke-width="2"/>
<path d="M93.8661 37.2397C93.8661 45.0923 87.4161 51.4795 79.433 51.4795C71.45 51.4795 65 45.0923 65 37.2397C65 29.3872 71.45 23 79.433 23C87.4161 23 93.8661 29.3872 93.8661 37.2397Z" fill="#F5D451" stroke="#002333" stroke-width="2"/>
<path d="M74.2456 44.329C73.7959 44.329 73.4314 43.9644 73.4314 43.5148C73.4314 43.0651 73.7959 42.7006 74.2456 42.7006H74.7053C75.2576 42.7006 75.7053 42.2529 75.7053 41.7006V33.0571C75.7053 32.5048 75.2576 32.0571 74.7053 32.0571H74.2456C73.7959 32.0571 73.4314 31.6926 73.4314 31.2429C73.4314 30.7932 73.7959 30.4287 74.2456 30.4287H79.535C81.2425 30.4287 82.543 30.7434 83.4366 31.3727C84.3462 31.9863 84.8009 32.8831 84.8009 34.0631C84.8009 34.6924 84.6254 35.2903 84.2743 35.8566C83.8914 36.4859 83.9629 37.6851 84.4453 38.2417C84.4848 38.2873 84.5235 38.334 84.5616 38.3818C85.0243 38.9639 85.2557 39.6798 85.2557 40.5294C85.2557 41.6307 84.8727 42.5432 84.1068 43.267C83.3408 43.975 82.152 44.329 80.5404 44.329H74.2456ZM77.6202 35.5882C77.6202 36.1405 78.0679 36.5882 78.6202 36.5882H80.6122C81.3143 36.5882 81.8488 36.3837 82.2159 35.9746C82.5829 35.5656 82.7664 35.0149 82.7664 34.3227C82.7664 32.8123 81.777 32.0571 79.7983 32.0571H78.6202C78.0679 32.0571 77.6202 32.5048 77.6202 33.0571V35.5882ZM77.6014 41.6719C77.5985 42.2261 78.0471 42.677 78.6014 42.677H80.4446C81.3382 42.677 82.0244 42.4803 82.5031 42.087C82.9818 41.6779 83.2212 41.0722 83.2212 40.2698C83.2212 39.5461 82.9898 38.9875 82.527 38.5942C82.0802 38.2009 81.434 38.0042 80.5882 38.0042H78.6151C78.0648 38.0042 77.6179 38.4488 77.6151 38.9991L77.6014 41.6719Z" fill="#002333"/>
<path d="M77.0911 30.6291V28.6305C77.0911 28.2418 77.4062 27.9266 77.7949 27.9266C78.1836 27.9266 78.4987 28.2417 78.4987 28.6305V30.6291C78.4987 31.0178 78.1836 31.3329 77.7949 31.3329C77.4062 31.3329 77.0911 31.0178 77.0911 30.6291Z" fill="#002333"/>
<path d="M79.9065 30.6291V28.6305C79.9065 28.2418 80.2216 27.9266 80.6103 27.9266C80.999 27.9266 81.3142 28.2417 81.3142 28.6305V30.6291C81.3142 31.0178 80.999 31.3329 80.6103 31.3329C80.2216 31.3329 79.9065 31.0178 79.9065 30.6291Z" fill="#002333"/>
<path d="M77.0911 45.8491V44.1344C77.0911 43.7457 77.4062 43.4305 77.7949 43.4305C78.1836 43.4305 78.4987 43.7457 78.4987 44.1344V45.8491C78.4987 46.2378 78.1836 46.553 77.7949 46.553C77.4062 46.553 77.0911 46.2378 77.0911 45.8491Z" fill="#002333"/>
<path d="M79.9065 45.8491V44.1344C79.9065 43.7457 80.2216 43.4305 80.6103 43.4305C80.999 43.4305 81.3142 43.7457 81.3142 44.1344V45.8491C81.3142 46.2378 80.999 46.553 80.6103 46.553C80.2216 46.553 79.9065 46.2378 79.9065 45.8491Z" fill="#002333"/>
</svg>
