<svg width="108" height="108" viewBox="0 0 108 108" fill="none" xmlns="http://www.w3.org/2000/svg">
<g filter="url(#filter0_d_1681_3)">
<circle cx="54" cy="50" r="50" fill="#02ACAB"/>
</g>
<path d="M51.36 55.5311C51.36 56.8755 51.0341 58.1203 50.3822 59.2656C49.7304 60.3859 48.7647 61.2946 47.4852 61.9917C46.2057 62.6639 44.6485 63 42.8137 63C41.0031 63 39.3856 62.6888 37.9612 62.0664C36.5368 61.4191 35.3901 60.4979 34.5209 59.3029C33.676 58.1079 33.1931 56.7137 33.0724 55.1203H38.5044C38.6251 56.1909 39.0355 57.0871 39.7356 57.8091C40.4599 58.5062 41.4135 58.8548 42.5964 58.8548C43.6587 58.8548 44.4675 58.5685 45.0227 57.9959C45.6021 57.3983 45.8918 56.639 45.8918 55.7178C45.8918 54.8963 45.6625 54.2241 45.2038 53.7012C44.7451 53.1535 44.1657 52.7178 43.4656 52.3942C42.7654 52.0705 41.7998 51.6971 40.5685 51.2739C38.9751 50.7261 37.6715 50.1909 36.6575 49.668C35.6436 49.1203 34.7744 48.3361 34.0502 47.3154C33.3501 46.2946 33 44.9627 33 43.3195C33 41.0539 33.7846 39.2739 35.3538 37.9793C36.9472 36.6598 39.0476 36 41.6549 36C44.3588 36 46.5075 36.6722 48.1008 38.0166C49.7183 39.361 50.6357 41.1535 50.853 43.3942H45.3486C45.2038 42.4481 44.8175 41.6763 44.1898 41.0788C43.5621 40.4564 42.7051 40.1452 41.6187 40.1452C40.6772 40.1452 39.9167 40.4066 39.3373 40.9295C38.7579 41.4274 38.4682 42.1618 38.4682 43.1328C38.4682 43.9046 38.6854 44.5519 39.12 45.0747C39.5787 45.5726 40.146 45.9834 40.822 46.3071C41.5221 46.6307 42.4637 46.9917 43.6466 47.39C45.2883 47.9876 46.6161 48.5477 47.6301 49.0705C48.6682 49.5934 49.5493 50.3776 50.2736 51.4232C50.9979 52.4689 51.36 53.8382 51.36 55.5311Z" fill="white"/>
<path d="M66.4928 57.7269H55.7055L53.7996 63H48.1201L58.0307 37.08H64.1676L74.0401 63H68.3606L66.4928 57.7269ZM65.0444 53.7535L61.0801 42.6873L57.1159 53.7535H65.0444Z" fill="white"/>
<defs>
<filter id="filter0_d_1681_3" x="0" y="0" width="108" height="108" filterUnits="userSpaceOnUse" color-interpolation-filters="sRGB">
<feFlood flood-opacity="0" result="BackgroundImageFix"/>
<feColorMatrix in="SourceAlpha" type="matrix" values="0 0 0 0 0 0 0 0 0 0 0 0 0 0 0 0 0 0 127 0" result="hardAlpha"/>
<feOffset dy="4"/>
<feGaussianBlur stdDeviation="2"/>
<feComposite in2="hardAlpha" operator="out"/>
<feColorMatrix type="matrix" values="0 0 0 0 0 0 0 0 0 0 0 0 0 0 0 0 0 0 0.25 0"/>
<feBlend mode="normal" in2="BackgroundImageFix" result="effect1_dropShadow_1681_3"/>
<feBlend mode="normal" in="SourceGraphic" in2="effect1_dropShadow_1681_3" result="shape"/>
</filter>
</defs>
</svg>
