<svg width="409" height="372" viewBox="0 0 409 372" fill="none" xmlns="http://www.w3.org/2000/svg">
<g clip-path="url(#clip0_1201_1892)">
<path d="M83.1068 264C83.1068 264 33.1143 266.527 44.7586 281.912C56.4029 297.297 87 272.887 87 272.887L83.1068 264Z" fill="#A48585"/>
<path d="M176.597 117L166.238 119.505C166.238 119.505 160.195 137.039 155.878 152.904C151.562 168.768 142.929 216.362 142.929 216.362L76 261.729L83.9826 279L173.144 245.013L193 169.603L176.597 117Z" fill="#002333"/>
<path opacity="0.2" d="M167.089 148L170.852 225.853L163 249L186 232.335L167.089 148Z" fill="#006594"/>
<path d="M153.246 286.852C153.246 286.852 142.13 316.07 140.42 336.104C138.71 356.139 137 372 137 372H189.157L199.417 356.974V372H260.125C260.125 372 277.225 317.739 270.385 311.061C263.545 304.383 198.562 276 198.562 276L153.246 286.852Z" fill="#2F2E41"/>
<path d="M53 371H356V372H53V371Z" fill="#02ACAB"/>
<path d="M218.5 85C200.551 85 186 70.897 186 53.5C186 36.103 200.551 22 218.5 22C236.449 22 251 36.103 251 53.5C251 70.897 236.449 85 218.5 85Z" fill="#A48585"/>
<path d="M243.421 67L246 103.589L213.333 146L197 106.084C197 106.084 211.614 96.9368 203.018 77.8105L243.421 67Z" fill="#A48585"/>
<path d="M148 293.611C148 301.105 169.552 312.757 169.552 312.757V316.919L178.173 321.081L197.138 284.457L202.307 324.409C202.307 324.409 240.242 330.239 252.309 324.409C264.381 318.583 270.414 321.081 287.656 315.255C304.898 309.429 280.758 231.181 280.758 231.181L298 110.483L260.332 92.2972L258.347 91.3364L253.168 90.416L245.228 89L218.69 106.321L216.553 117.143L215.238 123.803L208.346 116.308L203.14 99.7767L166.101 119.641L176.445 199.548C176.445 199.548 148 286.121 148 293.611Z" fill="#002333"/>
<path d="M274.491 320C274.491 320 235.351 350.599 254.07 356.388C272.789 362.177 283 324.962 283 324.962L274.491 320Z" fill="#A48585"/>
<path d="M288.789 111.668L297.342 110C297.342 110 310.171 116.672 311.026 130.015C311.882 143.358 323 236.762 323 236.762L287.079 331L258 320.158L286.224 231.758L264.842 155.034L288.789 111.668Z" fill="#002333"/>
<path d="M215 137C213.343 137 212 135.657 212 134C212 132.343 213.343 131 215 131C216.657 131 218 132.343 218 134C218 135.657 216.657 137 215 137Z" fill="white"/>
<path d="M215 157C213.343 157 212 155.657 212 154C212 152.343 213.343 151 215 151C216.657 151 218 152.343 218 154C218 155.657 216.657 157 215 157Z" fill="white"/>
<path d="M197 287C195.343 287 194 285.657 194 284C194 282.343 195.343 281 197 281C198.657 281 200 282.343 200 284C200 285.657 198.657 287 197 287Z" fill="white"/>
<path d="M246.413 20.8966L252.478 18.5418C252.478 18.5418 239.797 5.0016 222.153 6.17904L227.115 0.880675C227.115 0.880675 214.985 -3.82891 203.958 8.53382C198.161 15.0326 191.454 22.6716 187.272 31.2769H180.777L183.488 37.0658L174 42.8547L183.739 41.8148C183.158 44.9849 183.069 48.2212 183.474 51.4168C183.892 54.6133 185.574 57.5274 188.165 59.5441C188.165 59.5441 195.687 44.4447 195.687 42.0898V47.9769C195.687 47.9769 201.752 42.6786 201.752 39.1464L205.06 43.2673H227.115L223.807 37.969L236.488 39.7351L231.526 33.2593L251.16 60C251.16 60 262.403 29.7271 246.413 20.8966Z" fill="#121218"/>
<path d="M111.744 194.312C111.744 223.754 87.8516 247.624 58.3834 247.624C31.4117 247.624 9.10641 227.623 5.51329 201.678C5.18664 199.277 5 196.806 5 194.312C5 190.885 5.32664 187.505 5.9566 184.265C9.64305 164.894 23.8522 149.229 42.4011 143.424C43.801 142.981 45.2242 142.608 46.6708 142.282C50.4272 141.443 54.347 141 58.3834 141C87.8516 141 111.744 164.87 111.744 194.312Z" fill="#F4AD00"/>
<path opacity="0.78" d="M46.6709 142.282C45.971 146.688 44.991 151.513 43.4744 156.269C31.5518 160.721 22.3357 170.721 18.9525 183.123C15.1728 184.148 10.8564 184.568 5.97998 184.265C9.66643 164.894 23.8756 149.229 42.4245 143.424C43.8011 142.981 45.2243 142.608 46.6709 142.282Z" fill="#F4C83D"/>
<path opacity="0.19" d="M57.4502 233.521C79.4979 233.521 97.3711 215.664 97.3711 193.636C97.3711 171.608 79.4979 153.751 57.4502 153.751C35.4025 153.751 17.5293 171.608 17.5293 193.636C17.5293 215.664 35.4025 233.521 57.4502 233.521Z" fill="#D39333"/>
<path d="M86.895 166.805C79.8488 160.441 70.516 156.572 60.2732 156.572C38.3645 156.572 20.5856 174.334 20.5856 196.223C20.5856 206.457 24.4587 215.781 30.8283 222.821C22.8022 215.571 17.7625 205.082 17.7625 193.403C17.7625 171.514 35.5414 153.751 57.4501 153.751C69.1394 153.751 79.6388 158.786 86.895 166.805Z" fill="#CC820A"/>
<path d="M100.241 196.643C100.241 218.532 82.462 236.295 60.5533 236.295C48.8873 236.295 38.388 231.26 31.1084 223.241C38.1546 229.605 47.4874 233.474 57.7301 233.474C79.6388 233.474 97.4177 215.711 97.4177 193.822C97.4177 183.589 93.5446 174.265 87.175 167.225C95.2012 174.474 100.241 184.964 100.241 196.643Z" fill="#F4C83D"/>
<path d="M44.2458 214.861L43.8904 212.569C45.9835 212.217 47.2473 211.825 47.6818 211.394C48.1557 210.964 48.3927 210.141 48.3927 208.927L48.3927 180.08C48.3927 178.866 48.1557 178.044 47.6818 177.613C47.2473 177.182 45.9835 176.79 43.8904 176.438L44.2458 174.146L59.8853 174.146C64.1901 174.146 67.4879 175.008 69.7785 176.731C72.0691 178.416 73.2145 180.785 73.2145 183.84C73.2145 186.269 72.5431 188.325 71.2003 190.009C69.897 191.654 68.495 192.712 66.9942 193.182L66.9942 193.593C69.5218 194.063 71.6347 195.238 73.3329 197.118C75.0312 198.998 75.8803 201.289 75.8803 203.992C75.8803 206.655 74.6955 209.142 72.3259 211.453C69.9957 213.725 66.4018 214.861 61.5441 214.861L44.2458 214.861ZM54.139 192.359L57.4565 192.359C60.695 192.359 63.0646 191.674 64.5653 190.303C66.1056 188.893 66.8757 186.974 66.8757 184.545C66.8757 179.689 63.9532 177.26 58.1081 177.26L54.139 177.26L54.139 192.359ZM54.139 209.162C54.139 210.298 54.4352 210.983 55.0276 211.218C55.62 211.61 56.8246 211.806 58.6413 211.806C62.4327 211.806 65.1577 211.14 66.8165 209.808C68.4752 208.477 69.3046 206.557 69.3046 204.051C69.3046 200.408 67.8236 197.901 64.8615 196.53C63.4003 195.825 61.7415 195.473 59.8853 195.473L54.139 195.473L54.139 209.162Z" fill="#CC820A"/>
<path d="M56.7356 168.912L56.7356 175.31" stroke="#CC820A" stroke-width="2" stroke-linecap="round"/>
<path d="M63.1335 168.912L63.1335 175.31" stroke="#CC820A" stroke-width="2" stroke-linecap="round"/>
<path d="M56.7356 213.743L56.7356 220.141" stroke="#CC820A" stroke-width="2" stroke-linecap="round"/>
<path d="M63.1335 213.743L63.1335 220.141" stroke="#CC820A" stroke-width="2" stroke-linecap="round"/>
<path d="M55.5723 167.393L55.5723 173.791" stroke="white" stroke-width="2" stroke-linecap="round"/>
<path d="M61.9702 167.393L61.9702 173.791" stroke="white" stroke-width="2" stroke-linecap="round"/>
<path d="M55.5723 212.224L55.5723 218.622" stroke="white" stroke-width="2" stroke-linecap="round"/>
<path d="M61.9702 212.224L61.9702 218.622" stroke="white" stroke-width="2" stroke-linecap="round"/>
<path d="M43.0823 213.342L42.7268 211.05C44.82 210.698 46.0838 210.306 46.5182 209.875C46.9921 209.445 47.2291 208.622 47.2291 207.408L47.2291 178.561C47.2291 177.347 46.9921 176.524 46.5182 176.094C46.0838 175.663 44.82 175.271 42.7268 174.919L43.0822 172.627L58.7218 172.627C63.0266 172.627 66.3243 173.489 68.6149 175.212C70.9056 176.897 72.0509 179.266 72.0509 182.321C72.0509 184.75 71.3795 186.806 70.0367 188.49C68.7334 190.135 67.3314 191.193 65.8306 191.663L65.8306 192.074C68.3582 192.544 70.4711 193.719 72.1694 195.599C73.8676 197.479 74.7167 199.77 74.7167 202.473C74.7167 205.136 73.5319 207.623 71.1623 209.934C68.8321 212.206 65.2382 213.342 60.3805 213.342L43.0823 213.342ZM52.9754 190.84L56.2929 190.84C59.5314 190.84 61.901 190.155 63.4018 188.784C64.942 187.374 65.7121 185.455 65.7121 183.026C65.7121 178.169 62.7896 175.741 56.9445 175.741L52.9754 175.741L52.9754 190.84ZM52.9754 207.643C52.9754 208.779 53.2716 209.464 53.864 209.699C54.4564 210.091 55.661 210.287 57.4777 210.287C61.2691 210.287 63.9942 209.621 65.6529 208.289C67.3116 206.957 68.141 205.038 68.141 202.532C68.141 198.889 66.66 196.382 63.698 195.011C62.2367 194.306 60.578 193.954 58.7218 193.954L52.9754 193.954L52.9754 207.643Z" fill="white"/>
<path opacity="0.2" d="M278.643 256.011L257.788 319.363L274.474 253.442L278.643 256.011Z" fill="#006594"/>
<path d="M399.379 130.133C399.379 130.133 399.379 130.133 399.379 130.133L400.337 130.134C400.336 130.691 400.112 131.219 399.722 131.609L399.044 130.912C399.262 130.7 399.379 130.42 399.379 130.133Z" fill="#002333" stroke="#002333" stroke-width="2"/>
<path d="M372.741 90.3971H360.789C360.788 90.3971 360.788 90.3971 360.788 90.3971H372.741ZM372.742 89.4112L372.742 89.3971L372.742 89.4112Z" fill="#002333" stroke="#002333" stroke-width="2"/>
<mask id="path-33-inside-1_1201_1892" fill="white">
<path d="M336.43 132.249H347.461C348.33 132.248 349.164 131.912 349.778 131.314C350.393 130.716 350.739 129.906 350.74 129.06V74.0811C350.739 73.2355 350.393 72.425 349.778 71.8271C349.164 71.2292 348.33 70.8929 347.461 70.892H336.43C335.561 70.8929 334.727 71.2292 334.112 71.8271C333.498 72.425 333.152 73.2355 333.151 74.0811V129.06C333.152 129.906 333.498 130.716 334.112 131.314C334.727 131.912 335.561 132.248 336.43 132.249ZM347.461 71.9061C348.054 71.9068 348.622 72.1361 349.041 72.5439C349.461 72.9516 349.696 73.5044 349.697 74.0811V129.06C349.696 129.637 349.461 130.189 349.041 130.597C348.622 131.005 348.054 131.234 347.461 131.235H336.43C335.837 131.234 335.269 131.005 334.849 130.597C334.43 130.189 334.194 129.637 334.194 129.06V74.0811C334.194 73.5044 334.43 72.9516 334.849 72.5439C335.269 72.1361 335.837 71.9068 336.43 71.9061H347.461Z"/>
</mask>
<path d="M336.43 132.249H347.461C348.33 132.248 349.164 131.912 349.778 131.314C350.393 130.716 350.739 129.906 350.74 129.06V74.0811C350.739 73.2355 350.393 72.425 349.778 71.8271C349.164 71.2292 348.33 70.8929 347.461 70.892H336.43C335.561 70.8929 334.727 71.2292 334.112 71.8271C333.498 72.425 333.152 73.2355 333.151 74.0811V129.06C333.152 129.906 333.498 130.716 334.112 131.314C334.727 131.912 335.561 132.248 336.43 132.249ZM347.461 71.9061C348.054 71.9068 348.622 72.1361 349.041 72.5439C349.461 72.9516 349.696 73.5044 349.697 74.0811V129.06C349.696 129.637 349.461 130.189 349.041 130.597C348.622 131.005 348.054 131.234 347.461 131.235H336.43C335.837 131.234 335.269 131.005 334.849 130.597C334.43 130.189 334.194 129.637 334.194 129.06V74.0811C334.194 73.5044 334.43 72.9516 334.849 72.5439C335.269 72.1361 335.837 71.9068 336.43 71.9061H347.461Z" fill="#002333"/>
<path d="M347.461 132.249L347.463 134.249H347.461V132.249ZM350.74 129.06H352.74L352.74 129.062L350.74 129.06ZM350.74 74.0811L352.74 74.0787V74.0811H350.74ZM347.461 70.892V68.892L347.463 68.892L347.461 70.892ZM336.43 70.892L336.428 68.892H336.43V70.892ZM333.151 74.0811H331.151L331.151 74.0787L333.151 74.0811ZM333.151 129.06L331.151 129.062V129.06H333.151ZM347.461 71.9061V69.9061L347.463 69.9061L347.461 71.9061ZM349.697 74.0811L351.697 74.0787V74.0811H349.697ZM349.697 129.06H351.697L351.697 129.062L349.697 129.06ZM347.461 131.235L347.463 133.235H347.461V131.235ZM336.43 131.235V133.235L336.428 133.235L336.43 131.235ZM334.194 129.06L332.194 129.062V129.06H334.194ZM334.194 74.0811H332.194L332.194 74.0787L334.194 74.0811ZM336.43 71.9061L336.428 69.9061H336.43V71.9061ZM336.43 130.249H347.461V134.249H336.43V130.249ZM347.459 130.249C347.816 130.249 348.148 130.11 348.384 129.88L351.173 132.748C350.18 133.714 348.844 134.248 347.463 134.249L347.459 130.249ZM348.384 129.88C348.618 129.652 348.74 129.355 348.74 129.058L352.74 129.062C352.738 130.456 352.168 131.78 351.173 132.748L348.384 129.88ZM348.74 129.06V74.0811H352.74V129.06H348.74ZM348.74 74.0834C348.74 73.7858 348.618 73.4888 348.384 73.2609L351.173 70.3933C352.168 71.3611 352.738 72.6853 352.74 74.0787L348.74 74.0834ZM348.384 73.2609C348.148 73.0311 347.816 72.8924 347.459 72.892L347.463 68.892C348.844 68.8935 350.18 69.4273 351.173 70.3933L348.384 73.2609ZM347.461 72.892H336.43V68.892H347.461V72.892ZM336.432 72.892C336.075 72.8924 335.743 73.0311 335.507 73.2609L332.718 70.3933C333.711 69.4273 335.046 68.8935 336.428 68.892L336.432 72.892ZM335.507 73.2609C335.272 73.4888 335.151 73.7858 335.151 74.0834L331.151 74.0787C331.152 72.6853 331.723 71.3611 332.718 70.3933L335.507 73.2609ZM335.151 74.0811V129.06H331.151V74.0811H335.151ZM335.151 129.058C335.151 129.355 335.272 129.652 335.507 129.88L332.718 132.748C331.723 131.78 331.152 130.456 331.151 129.062L335.151 129.058ZM335.507 129.88C335.743 130.11 336.075 130.249 336.432 130.249L336.428 134.249C335.046 134.248 333.711 133.714 332.718 132.748L335.507 129.88ZM347.463 69.9061C348.568 69.9074 349.638 70.3342 350.436 71.1101L347.647 73.9777C347.606 73.938 347.539 73.9062 347.459 73.9061L347.463 69.9061ZM350.436 71.1101C351.235 71.8878 351.696 72.9542 351.697 74.0787L347.697 74.0834C347.697 74.0546 347.686 74.0154 347.647 73.9777L350.436 71.1101ZM351.697 74.0811V129.06H347.697V74.0811H351.697ZM351.697 129.062C351.696 130.187 351.235 131.253 350.436 132.031L347.647 129.163C347.686 129.126 347.697 129.086 347.697 129.058L351.697 129.062ZM350.436 132.031C349.638 132.807 348.568 133.234 347.463 133.235L347.459 129.235C347.539 129.235 347.606 129.203 347.647 129.163L350.436 132.031ZM347.461 133.235H336.43V129.235H347.461V133.235ZM336.428 133.235C335.323 133.234 334.253 132.807 333.455 132.031L336.244 129.163C336.284 129.203 336.351 129.235 336.432 129.235L336.428 133.235ZM333.455 132.031C332.655 131.253 332.195 130.187 332.194 129.062L336.194 129.058C336.194 129.086 336.205 129.126 336.244 129.163L333.455 132.031ZM332.194 129.06V74.0811H336.194V129.06H332.194ZM332.194 74.0787C332.195 72.9542 332.655 71.8878 333.455 71.1101L336.244 73.9777C336.205 74.0154 336.194 74.0546 336.194 74.0834L332.194 74.0787ZM333.455 71.1101C334.253 70.3342 335.323 69.9074 336.428 69.9061L336.432 73.9061C336.351 73.9062 336.284 73.938 336.244 73.9777L333.455 71.1101ZM336.43 69.9061H347.461V73.9061H336.43V69.9061Z" fill="#002333" mask="url(#path-33-inside-1_1201_1892)"/>
<path d="M386.621 113.036H396.549V128.725H386.621V113.036Z" fill="#02ACAB"/>
<path d="M361.801 93.1226H371.729V128.725H361.801V93.1226Z" fill="#02ACAB"/>
<path d="M336.982 74.6173H346.909V128.725H336.982V74.6173Z" fill="#02ACAB"/>
<mask id="path-38-inside-2_1201_1892" fill="white">
<path d="M32.0139 73.9345H101.363C101.431 73.9345 101.499 73.9214 101.562 73.8959C101.625 73.8704 101.683 73.8331 101.731 73.786C101.78 73.7389 101.818 73.683 101.844 73.6215C101.871 73.5599 101.884 73.494 101.884 73.4274V4.97107C101.884 4.83659 101.829 4.70761 101.731 4.61251C101.634 4.51741 101.501 4.46399 101.363 4.46399C101.224 4.46399 101.092 4.51741 100.994 4.61251C100.896 4.70761 100.841 4.83659 100.841 4.97107V72.9203H32.0139C31.8756 72.9203 31.743 72.9737 31.6452 73.0688C31.5474 73.1639 31.4925 73.2929 31.4925 73.4274C31.4925 73.5619 31.5474 73.6909 31.6452 73.7859C31.743 73.8811 31.8756 73.9345 32.0139 73.9345Z"/>
</mask>
<path d="M32.0139 73.9345H101.363C101.431 73.9345 101.499 73.9214 101.562 73.8959C101.625 73.8704 101.683 73.8331 101.731 73.786C101.78 73.7389 101.818 73.683 101.844 73.6215C101.871 73.5599 101.884 73.494 101.884 73.4274V4.97107C101.884 4.83659 101.829 4.70761 101.731 4.61251C101.634 4.51741 101.501 4.46399 101.363 4.46399C101.224 4.46399 101.092 4.51741 100.994 4.61251C100.896 4.70761 100.841 4.83659 100.841 4.97107V72.9203H32.0139C31.8756 72.9203 31.743 72.9737 31.6452 73.0688C31.5474 73.1639 31.4925 73.2929 31.4925 73.4274C31.4925 73.5619 31.5474 73.6909 31.6452 73.7859C31.743 73.8811 31.8756 73.9345 32.0139 73.9345Z" fill="#002333"/>
<path d="M101.363 73.9345V71.9345H101.363L101.363 73.9345ZM101.884 73.4274L99.884 73.4279V73.4274H101.884ZM100.841 72.9203H102.841V74.9203H100.841V72.9203ZM32.0139 71.9345H101.363V75.9345H32.0139V71.9345ZM101.363 71.9345C101.177 71.9344 100.991 71.9701 100.815 72.0407L102.309 75.7511C102.007 75.8727 101.686 75.9346 101.362 75.9345L101.363 71.9345ZM100.815 72.0407C100.64 72.1113 100.477 72.2163 100.337 72.3522L103.126 75.2198C102.889 75.4499 102.611 75.6296 102.309 75.7511L100.815 72.0407ZM100.337 72.3522C100.197 72.4885 100.083 72.6531 100.004 72.838L103.685 74.4049C103.553 74.7129 103.363 74.9893 103.126 75.2198L100.337 72.3522ZM100.004 72.838C99.9253 73.0233 99.884 73.2239 99.884 73.4279L103.884 73.4269C103.884 73.764 103.816 74.0966 103.685 74.4049L100.004 72.838ZM99.884 73.4274V4.97107H103.884V73.4274H99.884ZM99.884 4.97107C99.884 5.38505 100.054 5.77072 100.337 6.0463L103.126 3.17873C103.605 3.6445 103.884 4.28812 103.884 4.97107H99.884ZM100.337 6.0463C100.618 6.31993 100.988 6.46399 101.363 6.46399V2.46399C102.014 2.46399 102.649 2.7149 103.126 3.17873L100.337 6.0463ZM101.363 6.46399C101.737 6.46399 102.107 6.31984 102.388 6.0463L99.5996 3.17873C100.076 2.71499 100.712 2.46399 101.363 2.46399V6.46399ZM102.388 6.0463C102.671 5.77094 102.841 5.38537 102.841 4.97107H98.8412C98.8412 4.2878 99.1208 3.64427 99.5996 3.17873L102.388 6.0463ZM102.841 4.97107V72.9203H98.8412V4.97107H102.841ZM100.841 74.9203H32.0139V70.9203H100.841V74.9203ZM32.0139 74.9203C32.3884 74.9203 32.7583 74.7762 33.0396 74.5026L30.2509 71.635C30.7277 71.1713 31.3629 70.9203 32.0139 70.9203V74.9203ZM33.0396 74.5026C33.3227 74.2273 33.4925 73.8417 33.4925 73.4274H29.4925C29.4925 72.7441 29.7721 72.1006 30.2509 71.635L33.0396 74.5026ZM33.4925 73.4274C33.4925 73.0131 33.3227 72.6275 33.0396 72.3522L30.2509 75.2197C29.7721 74.7542 29.4925 74.1107 29.4925 73.4274H33.4925ZM33.0396 72.3522C32.7583 72.0786 32.3884 71.9345 32.0139 71.9345V75.9345C31.3629 75.9345 30.7277 75.6835 30.2509 75.2197L33.0396 72.3522Z" fill="#002333" mask="url(#path-38-inside-2_1201_1892)"/>
<mask id="path-40-inside-3_1201_1892" fill="white">
<path d="M326.094 139.348H408.479C408.547 139.348 408.615 139.335 408.678 139.31C408.741 139.284 408.799 139.247 408.847 139.2C408.896 139.153 408.934 139.097 408.96 139.035C408.987 138.974 409 138.908 409 138.841V59.229C409 59.0945 408.945 58.9655 408.847 58.8704C408.749 58.7753 408.617 58.7219 408.479 58.7219C408.34 58.7219 408.208 58.7753 408.11 58.8704C408.012 58.9655 407.957 59.0945 407.957 59.229V138.334H326.094C325.956 138.334 325.823 138.388 325.726 138.483C325.628 138.578 325.573 138.707 325.573 138.841C325.573 138.976 325.628 139.105 325.726 139.2C325.823 139.295 325.956 139.348 326.094 139.348Z"/>
</mask>
<path d="M326.094 139.348H408.479C408.547 139.348 408.615 139.335 408.678 139.31C408.741 139.284 408.799 139.247 408.847 139.2C408.896 139.153 408.934 139.097 408.96 139.035C408.987 138.974 409 138.908 409 138.841V59.229C409 59.0945 408.945 58.9655 408.847 58.8704C408.749 58.7753 408.617 58.7219 408.479 58.7219C408.34 58.7219 408.208 58.7753 408.11 58.8704C408.012 58.9655 407.957 59.0945 407.957 59.229V138.334H326.094C325.956 138.334 325.823 138.388 325.726 138.483C325.628 138.578 325.573 138.707 325.573 138.841C325.573 138.976 325.628 139.105 325.726 139.2C325.823 139.295 325.956 139.348 326.094 139.348Z" fill="#002333"/>
<path d="M408.479 139.348V137.348L408.479 137.348L408.479 139.348ZM409 138.841L407 138.842V138.841H409ZM407.957 138.334H409.957V140.334H407.957V138.334ZM326.094 137.348H408.479V141.348H326.094V137.348ZM408.479 137.348C408.292 137.348 408.106 137.384 407.931 137.454L409.425 141.165C409.123 141.286 408.802 141.348 408.478 141.348L408.479 137.348ZM407.931 137.454C407.756 137.525 407.593 137.63 407.453 137.766L410.242 140.634C410.005 140.864 409.727 141.043 409.425 141.165L407.931 137.454ZM407.453 137.766C407.313 137.902 407.199 138.067 407.12 138.252L410.8 139.819C410.669 140.127 410.478 140.403 410.242 140.634L407.453 137.766ZM407.12 138.252C407.041 138.437 407 138.638 407 138.842L411 138.841C411 139.178 410.932 139.51 410.8 139.819L407.12 138.252ZM407 138.841V59.229H411V138.841H407ZM407 59.229C407 59.6432 407.17 60.0288 407.453 60.3042L410.242 57.4367C410.72 57.9023 411 58.5458 411 59.229H407ZM407.453 60.3042C407.734 60.5778 408.104 60.7219 408.479 60.7219V56.7219C409.13 56.7219 409.765 56.9729 410.242 57.4367L407.453 60.3042ZM408.479 60.7219C408.853 60.7219 409.223 60.5778 409.504 60.3042L406.716 57.4367C407.192 56.9729 407.828 56.7219 408.479 56.7219V60.7219ZM409.504 60.3042C409.787 60.0288 409.957 59.6432 409.957 59.229H405.957C405.957 58.5458 406.237 57.9023 406.716 57.4367L409.504 60.3042ZM409.957 59.229V138.334H405.957V59.229H409.957ZM407.957 140.334H326.094V136.334H407.957V140.334ZM326.094 140.334C326.469 140.334 326.839 140.19 327.12 139.916L324.331 137.049C324.808 136.585 325.443 136.334 326.094 136.334V140.334ZM327.12 139.916C327.403 139.641 327.573 139.255 327.573 138.841H323.573C323.573 138.158 323.852 137.514 324.331 137.049L327.12 139.916ZM327.573 138.841C327.573 138.427 327.403 138.041 327.12 137.766L324.331 140.634C323.852 140.168 323.573 139.524 323.573 138.841H327.573ZM327.12 137.766C326.839 137.492 326.469 137.348 326.094 137.348V141.348C325.443 141.348 324.808 141.097 324.331 140.634L327.12 137.766Z" fill="#002333" mask="url(#path-40-inside-3_1201_1892)"/>
<mask id="path-42-inside-4_1201_1892" fill="white">
<path d="M77.4303 67.5793H90.6674C91.2444 67.5788 91.7976 67.3557 92.2056 66.9589C92.6136 66.5622 92.8431 66.0242 92.8438 65.4631V46.958C92.8431 46.3969 92.6136 45.859 92.2056 45.4622C91.7976 45.0655 91.2444 44.8424 90.6674 44.8418H77.4303C76.8534 44.8425 76.3003 45.0656 75.8924 45.4624C75.4845 45.8591 75.2551 46.397 75.2545 46.958V65.4631C75.2551 66.0242 75.4845 66.562 75.8924 66.9588C76.3003 67.3555 76.8534 67.5787 77.4303 67.5793ZM90.6674 45.856C90.9679 45.8563 91.256 45.9725 91.4685 46.1791C91.681 46.3857 91.8005 46.6658 91.8009 46.958V65.4631C91.8005 65.7554 91.681 66.0355 91.4685 66.2421C91.256 66.4487 90.9679 66.5649 90.6674 66.5652H77.4303C77.1299 66.5648 76.8419 66.4486 76.6295 66.242C76.4171 66.0354 76.2976 65.7553 76.2973 65.4631V46.958C76.2976 46.6659 76.4171 46.3858 76.6295 46.1792C76.8419 45.9726 77.1299 45.8563 77.4303 45.856H90.6674Z"/>
</mask>
<path d="M77.4303 67.5793H90.6674C91.2444 67.5788 91.7976 67.3557 92.2056 66.9589C92.6136 66.5622 92.8431 66.0242 92.8438 65.4631V46.958C92.8431 46.3969 92.6136 45.859 92.2056 45.4622C91.7976 45.0655 91.2444 44.8424 90.6674 44.8418H77.4303C76.8534 44.8425 76.3003 45.0656 75.8924 45.4624C75.4845 45.8591 75.2551 46.397 75.2545 46.958V65.4631C75.2551 66.0242 75.4845 66.562 75.8924 66.9588C76.3003 67.3555 76.8534 67.5787 77.4303 67.5793ZM90.6674 45.856C90.9679 45.8563 91.256 45.9725 91.4685 46.1791C91.681 46.3857 91.8005 46.6658 91.8009 46.958V65.4631C91.8005 65.7554 91.681 66.0355 91.4685 66.2421C91.256 66.4487 90.9679 66.5649 90.6674 66.5652H77.4303C77.1299 66.5648 76.8419 66.4486 76.6295 66.242C76.4171 66.0354 76.2976 65.7553 76.2973 65.4631V46.958C76.2976 46.6659 76.4171 46.3858 76.6295 46.1792C76.8419 45.9726 77.1299 45.8563 77.4303 45.856H90.6674Z" fill="#002333"/>
<path d="M77.4303 67.5793V69.5793L77.428 69.5793L77.4303 67.5793ZM90.6674 67.5793L90.6694 69.5793H90.6674V67.5793ZM92.8438 65.4631H94.8438L94.8437 65.4654L92.8438 65.4631ZM92.8438 46.958L94.8438 46.9557V46.958H92.8438ZM90.6674 44.8418V42.8418L90.6694 42.8418L90.6674 44.8418ZM77.4303 44.8418L77.428 42.8418H77.4303V44.8418ZM75.2545 46.958H73.2545L73.2545 46.9558L75.2545 46.958ZM75.2545 65.4631L73.2545 65.4654V65.4631H75.2545ZM90.6674 45.856V43.856L90.6697 43.856L90.6674 45.856ZM91.8009 46.958L93.8009 46.9551V46.958H91.8009ZM91.8009 65.4631H93.8009L93.8009 65.466L91.8009 65.4631ZM90.6674 66.5652L90.6697 68.5652H90.6674V66.5652ZM77.4303 66.5652V68.5652L77.4279 68.5652L77.4303 66.5652ZM76.2973 65.4631L74.2973 65.4653V65.4631H76.2973ZM76.2973 46.958H74.2973L74.2973 46.9559L76.2973 46.958ZM77.4303 45.856L77.4279 43.856H77.4303V45.856ZM77.4303 65.5793H90.6674V69.5793H77.4303V65.5793ZM90.6655 65.5793C90.7304 65.5793 90.7819 65.5536 90.8113 65.525L93.5999 68.3928C92.8133 69.1577 91.7584 69.5783 90.6694 69.5793L90.6655 65.5793ZM90.8113 65.525C90.8388 65.4983 90.8437 65.474 90.8438 65.4608L94.8437 65.4654C94.8425 66.5744 94.3884 67.6261 93.5999 68.3928L90.8113 65.525ZM90.8438 65.4631V46.958H94.8438V65.4631H90.8438ZM90.8438 46.9604C90.8437 46.9471 90.8388 46.9229 90.8113 46.8961L93.5999 44.0284C94.3884 44.7951 94.8425 45.8467 94.8437 46.9557L90.8438 46.9604ZM90.8113 46.8961C90.7819 46.8675 90.7304 46.8419 90.6655 46.8418L90.6694 42.8418C91.7584 42.8429 92.8133 43.2635 93.5999 44.0284L90.8113 46.8961ZM90.6674 46.8418H77.4303V42.8418H90.6674V46.8418ZM77.4326 46.8418C77.3677 46.8419 77.3163 46.8675 77.2869 46.8961L74.498 44.0287C75.2844 43.2638 76.3391 42.8431 77.428 42.8418L77.4326 46.8418ZM77.2869 46.8961C77.2594 46.9229 77.2545 46.9471 77.2545 46.9603L73.2545 46.9558C73.2557 45.8469 73.7097 44.7954 74.498 44.0287L77.2869 46.8961ZM77.2545 46.958V65.4631H73.2545V46.958H77.2545ZM77.2545 65.4609C77.2545 65.474 77.2594 65.4983 77.2869 65.5251L74.498 68.3925C73.7097 67.6258 73.2557 66.5743 73.2545 65.4654L77.2545 65.4609ZM77.2869 65.5251C77.3163 65.5536 77.3677 65.5793 77.4326 65.5793L77.428 69.5793C76.3391 69.5781 75.2844 69.1573 74.498 68.3925L77.2869 65.5251ZM90.6697 43.856C91.482 43.8569 92.2717 44.1706 92.8627 44.7452L90.0743 47.6131C90.2403 47.7745 90.4538 47.8557 90.6651 47.856L90.6697 43.856ZM92.8627 44.7452C93.4556 45.3217 93.7997 46.1153 93.8009 46.9551L89.8009 46.9609C89.8013 47.2164 89.9063 47.4497 90.0743 47.6131L92.8627 44.7452ZM93.8009 46.958V65.4631H89.8009V46.958H93.8009ZM93.8009 65.466C93.7997 66.3059 93.4556 67.0995 92.8627 67.676L90.0743 64.8081C89.9063 64.9714 89.8013 65.2048 89.8009 65.4602L93.8009 65.466ZM92.8627 67.676C92.2717 68.2506 91.482 68.5643 90.6697 68.5652L90.6651 64.5652C90.4538 64.5655 90.2403 64.6467 90.0743 64.8081L92.8627 67.676ZM90.6674 68.5652H77.4303V64.5652H90.6674V68.5652ZM77.4279 68.5652C76.6154 68.5642 75.8258 68.2504 75.235 67.6756L78.024 64.8084C77.858 64.6469 77.6443 64.5655 77.4327 64.5652L77.4279 68.5652ZM75.235 67.6756C74.6423 67.0991 74.2982 66.3054 74.2973 65.4653L78.2973 65.461C78.2971 65.2052 78.1919 64.9717 78.024 64.8084L75.235 67.6756ZM74.2973 65.4631V46.958H78.2973V65.4631H74.2973ZM74.2973 46.9559C74.2982 46.1158 74.6423 45.3221 75.235 44.7455L78.024 47.6128C78.1919 47.4495 78.2971 47.216 78.2973 46.9601L74.2973 46.9559ZM75.235 44.7455C75.8258 44.1708 76.6155 43.857 77.4279 43.856L77.4327 47.856C77.6443 47.8557 77.858 47.7743 78.024 47.6128L75.235 44.7455ZM77.4303 43.856H90.6674V47.856H77.4303V43.856Z" fill="#002333" mask="url(#path-42-inside-4_1201_1892)"/>
<mask id="path-44-inside-5_1201_1892" fill="white">
<path d="M50.3221 67.5794H62.5057C63.2223 67.5786 63.9093 67.3014 64.416 66.8085C64.9227 66.3157 65.2077 65.6476 65.2085 64.9506V31.4326C65.2077 30.7357 64.9227 30.0676 64.416 29.5748C63.9093 29.082 63.2223 28.8048 62.5057 28.8041H50.3221C49.6055 28.8048 48.9185 29.082 48.4118 29.5748C47.9051 30.0676 47.6201 30.7357 47.6193 31.4326V64.9506C47.6201 65.6476 47.9051 66.3157 48.4118 66.8085C48.9185 67.3014 49.6055 67.5786 50.3221 67.5794ZM62.5057 29.8182C62.9458 29.8187 63.3678 29.9889 63.679 30.2916C63.9902 30.5942 64.1652 31.0046 64.1657 31.4326V64.9506C64.1652 65.3787 63.9902 65.7891 63.679 66.0918C63.3678 66.3945 62.9458 66.5648 62.5057 66.5652H50.3221C49.882 66.5648 49.46 66.3945 49.1488 66.0918C48.8376 65.7891 48.6625 65.3787 48.6621 64.9506V31.4326C48.6626 31.0046 48.8377 30.5942 49.1489 30.2916C49.4601 29.9889 49.882 29.8187 50.3221 29.8182H62.5057Z"/>
</mask>
<path d="M50.3221 67.5794H62.5057C63.2223 67.5786 63.9093 67.3014 64.416 66.8085C64.9227 66.3157 65.2077 65.6476 65.2085 64.9506V31.4326C65.2077 30.7357 64.9227 30.0676 64.416 29.5748C63.9093 29.082 63.2223 28.8048 62.5057 28.8041H50.3221C49.6055 28.8048 48.9185 29.082 48.4118 29.5748C47.9051 30.0676 47.6201 30.7357 47.6193 31.4326V64.9506C47.6201 65.6476 47.9051 66.3157 48.4118 66.8085C48.9185 67.3014 49.6055 67.5786 50.3221 67.5794ZM62.5057 29.8182C62.9458 29.8187 63.3678 29.9889 63.679 30.2916C63.9902 30.5942 64.1652 31.0046 64.1657 31.4326V64.9506C64.1652 65.3787 63.9902 65.7891 63.679 66.0918C63.3678 66.3945 62.9458 66.5648 62.5057 66.5652H50.3221C49.882 66.5648 49.46 66.3945 49.1488 66.0918C48.8376 65.7891 48.6625 65.3787 48.6621 64.9506V31.4326C48.6626 31.0046 48.8377 30.5942 49.1489 30.2916C49.4601 29.9889 49.882 29.8187 50.3221 29.8182H62.5057Z" fill="#002333"/>
<path d="M62.5057 67.5794L62.508 69.5794H62.5057V67.5794ZM65.2085 64.9506H67.2085L67.2085 64.9529L65.2085 64.9506ZM65.2085 31.4326L67.2085 31.4303V31.4326H65.2085ZM62.5057 28.8041V26.8041L62.5078 26.8041L62.5057 28.8041ZM50.3221 28.8041L50.32 26.8041H50.3221V28.8041ZM47.6193 31.4326H45.6193L45.6193 31.4303L47.6193 31.4326ZM47.6193 64.9506L45.6193 64.9529V64.9506H47.6193ZM62.5057 29.8182V27.8182L62.5078 27.8182L62.5057 29.8182ZM64.1657 31.4326L66.1657 31.4304V31.4326H64.1657ZM64.1657 64.9506H66.1657L66.1657 64.9526L64.1657 64.9506ZM62.5057 66.5652L62.5078 68.5652H62.5057V66.5652ZM50.3221 66.5652V68.5652L50.32 68.5652L50.3221 66.5652ZM48.6621 64.9506L46.6621 64.9526V64.9506H48.6621ZM48.6621 31.4326H46.6621L46.6621 31.4304L48.6621 31.4326ZM50.3221 29.8182L50.32 27.8182H50.3221V29.8182ZM50.3221 65.5794H62.5057V69.5794H50.3221V65.5794ZM62.5034 65.5794C62.708 65.5792 62.8934 65.4995 63.0216 65.3748L65.8105 68.2423C64.9252 69.1032 63.7365 69.578 62.508 69.5794L62.5034 65.5794ZM63.0216 65.3748C63.1479 65.252 63.2083 65.0975 63.2085 64.9484L67.2085 64.9529C67.2071 66.1977 66.6976 67.3795 65.8105 68.2423L63.0216 65.3748ZM63.2085 64.9506V31.4326H67.2085V64.9506H63.2085ZM63.2085 31.4348C63.2083 31.2859 63.1479 31.1314 63.0216 31.0086L65.8104 28.141C66.6975 29.0038 67.2071 30.1855 67.2085 31.4303L63.2085 31.4348ZM63.0216 31.0086C62.8935 30.8839 62.7081 30.8043 62.5036 30.8041L62.5078 26.8041C63.7364 26.8054 64.9251 27.2801 65.8104 28.141L63.0216 31.0086ZM62.5057 30.8041H50.3221V26.8041H62.5057V30.8041ZM50.3242 30.8041C50.1196 30.8043 49.9343 30.8839 49.8062 31.0086L47.0174 28.141C47.9027 27.2801 49.0914 26.8054 50.32 26.8041L50.3242 30.8041ZM49.8062 31.0086C49.6799 31.1314 49.6195 31.2859 49.6193 31.4348L45.6193 31.4303C45.6207 30.1855 46.1303 29.0038 47.0174 28.141L49.8062 31.0086ZM49.6193 31.4326V64.9506H45.6193V31.4326H49.6193ZM49.6193 64.9484C49.6195 65.0974 49.6799 65.2519 49.8062 65.3748L47.0174 68.2423C46.1303 67.3795 45.6207 66.1977 45.6193 64.9529L49.6193 64.9484ZM49.8062 65.3748C49.9344 65.4995 50.1198 65.5792 50.3244 65.5794L50.3198 69.5794C49.0912 69.578 47.9026 69.1032 47.0174 68.2423L49.8062 65.3748ZM62.5078 27.8182C63.4598 27.8192 64.3835 28.187 65.0733 28.8578L62.2846 31.7254C62.352 31.7909 62.4317 31.8182 62.5036 31.8182L62.5078 27.8182ZM65.0733 28.8578C65.765 29.5305 66.1646 30.4545 66.1657 31.4304L62.1657 31.4348C62.1658 31.5546 62.2153 31.658 62.2846 31.7254L65.0733 28.8578ZM66.1657 31.4326V64.9506H62.1657V31.4326H66.1657ZM66.1657 64.9526C66.1647 65.9286 65.7652 66.8527 65.0735 67.5255L62.2845 64.6581C62.2153 64.7255 62.1658 64.8288 62.1657 64.9487L66.1657 64.9526ZM65.0735 67.5255C64.3837 68.1964 63.46 68.5642 62.5078 68.5652L62.5035 64.5652C62.4317 64.5653 62.3519 64.5926 62.2845 64.6581L65.0735 67.5255ZM62.5057 68.5652H50.3221V64.5652H62.5057V68.5652ZM50.32 68.5652C49.3678 68.5642 48.4441 68.1964 47.7543 67.5255L50.5433 64.6581C50.4759 64.5926 50.3962 64.5653 50.3242 64.5652L50.32 68.5652ZM47.7543 67.5255C47.0627 66.8528 46.6631 65.9287 46.6621 64.9526L50.6621 64.9487C50.662 64.8287 50.6124 64.7254 50.5433 64.6581L47.7543 67.5255ZM46.6621 64.9506V31.4326H50.6621V64.9506H46.6621ZM46.6621 31.4304C46.6632 30.4544 47.0629 29.5304 47.7545 28.8578L50.5432 31.7254C50.6124 31.6581 50.662 31.5548 50.6621 31.4348L46.6621 31.4304ZM47.7545 28.8578C48.4442 28.187 49.3679 27.8192 50.32 27.8182L50.3242 31.8182C50.3961 31.8182 50.4759 31.7909 50.5432 31.7254L47.7545 28.8578ZM50.3221 27.8182H62.5057V31.8182H50.3221V27.8182Z" fill="#002333" mask="url(#path-44-inside-5_1201_1892)"/>
<path d="M79.3234 48.5416H89.2512V64.2308H79.3234V48.5416Z" fill="#02ACAB"/>
<path d="M51.4501 33.0137H61.3779V63.3696H51.4501V33.0137Z" fill="#02ACAB"/>
<path d="M84.1559 39.4528C81.5641 39.4528 79.4631 37.4096 79.4631 34.8891C79.4631 32.3686 81.5641 30.3253 84.1559 30.3253C86.7476 30.3253 88.8486 32.3686 88.8486 34.8891C88.8486 37.4096 86.7476 39.4528 84.1559 39.4528Z" fill="#02ACAB"/>
<path d="M56.5206 22.212C53.9288 22.212 51.8278 20.1687 51.8278 17.6482C51.8278 15.1277 53.9288 13.0845 56.5206 13.0845C59.1123 13.0845 61.2134 15.1277 61.2134 17.6482C61.2134 20.1687 59.1123 22.212 56.5206 22.212Z" fill="#02ACAB"/>
</g>
<defs>
<clipPath id="clip0_1201_1892">
<rect width="409" height="372" fill="white" transform="matrix(-1 0 0 1 409 0)"/>
</clipPath>
</defs>
</svg>
