<svg width="161" height="132" viewBox="0 0 161 132" fill="none" xmlns="http://www.w3.org/2000/svg">
<path d="M38.617 78.9349C32.4647 78.9349 23.1454 83.5362 19.6787 85.9007C19.1796 86.2411 18.9161 86.809 18.8935 87.4127C18.6481 93.9891 16.2428 106.3 22.4954 114.063C28.2291 121.182 39.8112 120.336 40.4083 120.336C41.0054 120.336 91.1615 120.963 92.9528 120.336C94.3704 119.84 134.856 107.845 155.573 101.716C156.016 101.585 156.395 101.302 156.644 100.913C162.908 91.1235 155.604 87.3016 150.708 86.5243C150.422 86.4789 150.139 86.5052 149.863 86.5924C137.199 90.5978 112.782 97.9882 113.254 96.499C113.851 94.6172 111.463 90.8534 110.269 90.2261C109.074 89.5988 69.069 78.9349 67.8748 78.9349H38.617Z" fill="#A48585" stroke="#002333" stroke-width="2" stroke-linecap="round" stroke-linejoin="round"/>
<path d="M16.9129 67.0165H3C1.89543 67.0165 1 67.9119 1 69.0165V129C1 130.105 1.89543 131 3 131H16.9129C18.0175 131 18.9129 130.104 18.9129 129V69.0165C18.9129 67.9119 18.0175 67.0165 16.9129 67.0165Z" fill="#02ACAB" stroke="#002333" stroke-width="2" stroke-linecap="round" stroke-linejoin="round"/>
<path d="M82.4749 99.2708L83.1507 96.7857C83.2901 96.2732 83.8055 95.9588 84.3246 96.0715C94.3171 98.2401 112.389 102.567 111.463 104.027C110.531 105.496 107.248 105.89 105.61 105.908C105.531 105.909 105.453 105.899 105.376 105.88L83.2042 100.505C82.6569 100.372 82.3271 99.8142 82.4749 99.2708Z" fill="#A96D6D"/>
<path d="M90.8661 15.2397C90.8661 23.0923 84.4161 29.4795 76.433 29.4795C68.45 29.4795 62 23.0923 62 15.2397C62 7.38719 68.45 1 76.433 1C84.4161 1 90.8661 7.38719 90.8661 15.2397Z" fill="#F5D451" stroke="#002333" stroke-width="2"/>
<path d="M71.2456 22.329C70.7959 22.329 70.4314 21.9644 70.4314 21.5148C70.4314 21.0651 70.7959 20.7006 71.2456 20.7006H71.7053C72.2576 20.7006 72.7053 20.2529 72.7053 19.7006V11.0571C72.7053 10.5048 72.2576 10.0571 71.7053 10.0571H71.2456C70.7959 10.0571 70.4314 9.69257 70.4314 9.2429C70.4314 8.79324 70.7959 8.42871 71.2456 8.42871H76.535C78.2425 8.42871 79.543 8.74337 80.4366 9.3727C81.3462 9.98629 81.8009 10.8831 81.8009 12.0631C81.8009 12.6924 81.6254 13.2903 81.2743 13.8566C80.8914 14.4859 80.9629 15.6851 81.4453 16.2417C81.4848 16.2873 81.5235 16.334 81.5616 16.3818C82.0243 16.9639 82.2557 17.6798 82.2557 18.5294C82.2557 19.6307 81.8727 20.5432 81.1068 21.267C80.3408 21.975 79.152 22.329 77.5404 22.329H71.2456ZM74.6202 13.5882C74.6202 14.1405 75.0679 14.5882 75.6202 14.5882H77.6122C78.3143 14.5882 78.8488 14.3837 79.2159 13.9746C79.5829 13.5656 79.7664 13.0149 79.7664 12.3227C79.7664 10.8123 78.777 10.0571 76.7983 10.0571H75.6202C75.0679 10.0571 74.6202 10.5048 74.6202 11.0571V13.5882ZM74.6014 19.6719C74.5985 20.2261 75.0471 20.677 75.6014 20.677H77.4446C78.3382 20.677 79.0244 20.4803 79.5031 20.087C79.9818 19.6779 80.2212 19.0722 80.2212 18.2698C80.2212 17.5461 79.9898 16.9875 79.527 16.5942C79.0802 16.2009 78.434 16.0042 77.5882 16.0042H75.6151C75.0648 16.0042 74.6179 16.4488 74.6151 16.9991L74.6014 19.6719Z" fill="#002333"/>
<path d="M74.0911 8.62906V6.63046C74.0911 6.24175 74.4062 5.92664 74.7949 5.92664C75.1836 5.92664 75.4987 6.24175 75.4987 6.63046V8.62905C75.4987 9.01777 75.1836 9.33288 74.7949 9.33288C74.4062 9.33288 74.0911 9.01777 74.0911 8.62906Z" fill="#002333"/>
<path d="M76.9065 8.62906V6.63046C76.9065 6.24175 77.2216 5.92664 77.6103 5.92664C77.999 5.92664 78.3142 6.24175 78.3142 6.63046V8.62905C78.3142 9.01777 77.999 9.33288 77.6103 9.33288C77.2216 9.33288 76.9065 9.01777 76.9065 8.62906Z" fill="#002333"/>
<path d="M74.0911 23.8491V22.1344C74.0911 21.7457 74.4062 21.4305 74.7949 21.4305C75.1836 21.4305 75.4987 21.7457 75.4987 22.1344V23.8491C75.4987 24.2378 75.1836 24.553 74.7949 24.553C74.4062 24.553 74.0911 24.2378 74.0911 23.8491Z" fill="#002333"/>
<path d="M76.9065 23.8491V22.1344C76.9065 21.7457 77.2216 21.4305 77.6103 21.4305C77.999 21.4305 78.3142 21.7457 78.3142 22.1344V23.8491C78.3142 24.2378 77.999 24.553 77.6103 24.553C77.2216 24.553 76.9065 24.2378 76.9065 23.8491Z" fill="#002333"/>
<path d="M66.7187 58.448L62.3498 44.1989C62.1527 43.556 62.6335 42.9058 63.3059 42.9058H88.2787C88.9511 42.9058 89.4319 43.556 89.2348 44.1989L84.866 58.448C84.7372 58.8681 84.3493 59.1549 83.9099 59.1549H67.6747C67.2354 59.1549 66.8475 58.8681 66.7187 58.448Z" fill="#02ACAB" stroke="#002333" stroke-width="2" stroke-linecap="round" stroke-linejoin="round"/>
<path d="M65.2095 50.6028H86.3749" stroke="#002333" stroke-width="2" stroke-linecap="round" stroke-linejoin="round"/>
<path d="M68.4658 37.1771L75.2325 42.0695C75.5674 42.3116 76.0168 42.3228 76.3634 42.0975L83.9328 37.1771" stroke="#002333" stroke-width="2" stroke-linecap="round" stroke-linejoin="round"/>
<path d="M75.8958 41.5891L75.8958 30.1183" stroke="#002333" stroke-width="2" stroke-linecap="round" stroke-linejoin="round"/>
<mask id="path-14-inside-1_1178_1556" fill="white">
<rect x="110.332" y="10.0815" width="36.1588" height="49.5273" rx="1"/>
</mask>
<rect x="110.332" y="10.0815" width="36.1588" height="49.5273" rx="1" stroke="#002333" stroke-width="4" mask="url(#path-14-inside-1_1178_1556)"/>
<path d="M118.343 25.7157H123.805" stroke="#002333" stroke-linecap="round" stroke-linejoin="round"/>
<path d="M125.808 25.7157H131.27" stroke="#002333" stroke-linecap="round" stroke-linejoin="round"/>
<path d="M133.272 25.7157H138.734" stroke="#002333" stroke-linecap="round" stroke-linejoin="round"/>
<path d="M118.343 18.4084H123.805" stroke="#002333" stroke-linecap="round" stroke-linejoin="round"/>
<path d="M125.808 18.4084H131.27" stroke="#002333" stroke-linecap="round" stroke-linejoin="round"/>
<path d="M133.272 18.4084H138.734" stroke="#002333" stroke-linecap="round" stroke-linejoin="round"/>
<path d="M118.343 32.6171H123.805" stroke="#002333" stroke-linecap="round" stroke-linejoin="round"/>
<path d="M125.808 32.6171H131.27" stroke="#002333" stroke-linecap="round" stroke-linejoin="round"/>
<path d="M133.272 32.6171H138.734" stroke="#002333" stroke-linecap="round" stroke-linejoin="round"/>
<path d="M118.343 39.9243H123.805" stroke="#002333" stroke-linecap="round" stroke-linejoin="round"/>
<path d="M125.808 39.9243H131.27" stroke="#002333" stroke-linecap="round" stroke-linejoin="round"/>
<path d="M133.272 39.9243H138.734" stroke="#002333" stroke-linecap="round" stroke-linejoin="round"/>
<path d="M124 47V57.5C124 58.0523 124.448 58.5 125 58.5H132C132.552 58.5 133 58.0523 133 57.5V47C133 46.4477 132.552 46 132 46H125C124.448 46 124 46.4477 124 47Z" stroke="#002333" stroke-width="2" stroke-linecap="round"/>
<path d="M120 4V10C120 10.5523 120.448 11 121 11H136C136.552 11 137 10.5523 137 10V4C137 3.44772 136.552 3 136 3H121C120.448 3 120 3.44772 120 4Z" stroke="#002333" stroke-width="2" stroke-linecap="round"/>
<path d="M155.822 49.2981C155.822 54.4385 151.647 58.6089 146.491 58.6089C141.336 58.6089 137.16 54.4385 137.16 49.2981C137.16 44.1577 141.336 39.9873 146.491 39.9873C151.647 39.9873 155.822 44.1577 155.822 49.2981Z" fill="white" stroke="#002333" stroke-width="2"/>
<path d="M149.591 51.1329C149.591 51.6177 149.48 52.0635 149.258 52.4704C149.036 52.8773 148.707 53.2019 148.271 53.4443C147.835 53.6867 147.31 53.8079 146.696 53.8079V54.8467H146.219V53.7819C145.414 53.704 144.756 53.4183 144.246 52.9249C143.743 52.4314 143.466 51.7735 143.414 50.9511H145.432C145.454 51.2281 145.532 51.4619 145.665 51.6523C145.806 51.8428 145.99 51.9726 146.219 52.0419V49.9772C146.094 49.9339 146.013 49.9036 145.976 49.8863C145.436 49.7045 144.992 49.5227 144.645 49.3409C144.305 49.1505 144.009 48.8735 143.758 48.5099C143.514 48.1376 143.392 47.6485 143.392 47.0425C143.392 46.5145 143.514 46.0513 143.758 45.6531C144.009 45.2549 144.349 44.9519 144.778 44.7441C145.207 44.5277 145.687 44.4108 146.219 44.3935V43.3287H146.696V44.4065C147.509 44.4671 148.156 44.7398 148.637 45.2246C149.117 45.7007 149.387 46.3327 149.446 47.1204H147.395C147.365 46.8607 147.291 46.6486 147.173 46.4842C147.055 46.3197 146.896 46.2071 146.696 46.1466V48.1723L147.04 48.3021C147.58 48.5012 148.016 48.696 148.349 48.8865C148.689 49.0682 148.981 49.3409 149.225 49.7045C149.469 50.0681 149.591 50.5442 149.591 51.1329ZM145.421 46.9516C145.421 47.1854 145.488 47.3845 145.621 47.549C145.761 47.7048 145.961 47.8476 146.219 47.9775V46.0946C145.968 46.1119 145.772 46.1942 145.632 46.3413C145.491 46.4885 145.421 46.6919 145.421 46.9516ZM146.696 52.1068C146.962 52.0982 147.173 52.0116 147.328 51.8471C147.484 51.674 147.561 51.4532 147.561 51.1849C147.561 50.9425 147.487 50.7434 147.339 50.5875C147.192 50.423 146.977 50.2802 146.696 50.159V52.1068Z" fill="#002333"/>
</svg>
